%TF.GenerationSoftware,KiCad,Pcbnew,8.0.8*%
%TF.CreationDate,2025-02-27T00:19:43-08:00*%
%TF.ProjectId,Lab3v3,4c616233-7633-42e6-9b69-6361645f7063,V1*%
%TF.SameCoordinates,Original*%
%TF.FileFunction,Legend,Top*%
%TF.FilePolarity,Positive*%
%FSLAX46Y46*%
G04 Gerber Fmt 4.6, Leading zero omitted, Abs format (unit mm)*
G04 Created by KiCad (PCBNEW 8.0.8) date 2025-02-27 00:19:43*
%MOMM*%
%LPD*%
G01*
G04 APERTURE LIST*
%ADD10C,0.100000*%
%ADD11C,0.150000*%
%ADD12C,0.120000*%
G04 APERTURE END LIST*
D10*
X168005639Y-121204128D02*
X168005639Y-120846985D01*
X168338972Y-121596985D02*
X168005639Y-121204128D01*
X168005639Y-121204128D02*
X167672306Y-121596985D01*
X166910401Y-121346985D02*
X166910401Y-120846985D01*
X167338972Y-121346985D02*
X167338972Y-120954128D01*
X167338972Y-120954128D02*
X167291353Y-120882700D01*
X167291353Y-120882700D02*
X167196115Y-120846985D01*
X167196115Y-120846985D02*
X167053258Y-120846985D01*
X167053258Y-120846985D02*
X166958020Y-120882700D01*
X166958020Y-120882700D02*
X166910401Y-120918414D01*
X165719924Y-120882700D02*
X165577067Y-120846985D01*
X165577067Y-120846985D02*
X165338972Y-120846985D01*
X165338972Y-120846985D02*
X165243734Y-120882700D01*
X165243734Y-120882700D02*
X165196115Y-120918414D01*
X165196115Y-120918414D02*
X165148496Y-120989842D01*
X165148496Y-120989842D02*
X165148496Y-121061271D01*
X165148496Y-121061271D02*
X165196115Y-121132700D01*
X165196115Y-121132700D02*
X165243734Y-121168414D01*
X165243734Y-121168414D02*
X165338972Y-121204128D01*
X165338972Y-121204128D02*
X165529448Y-121239842D01*
X165529448Y-121239842D02*
X165624686Y-121275557D01*
X165624686Y-121275557D02*
X165672305Y-121311271D01*
X165672305Y-121311271D02*
X165719924Y-121382700D01*
X165719924Y-121382700D02*
X165719924Y-121454128D01*
X165719924Y-121454128D02*
X165672305Y-121525557D01*
X165672305Y-121525557D02*
X165624686Y-121561271D01*
X165624686Y-121561271D02*
X165529448Y-121596985D01*
X165529448Y-121596985D02*
X165291353Y-121596985D01*
X165291353Y-121596985D02*
X165148496Y-121561271D01*
X164719924Y-120846985D02*
X164719924Y-121596985D01*
X164291353Y-120846985D02*
X164291353Y-121239842D01*
X164291353Y-121239842D02*
X164338972Y-121311271D01*
X164338972Y-121311271D02*
X164434210Y-121346985D01*
X164434210Y-121346985D02*
X164577067Y-121346985D01*
X164577067Y-121346985D02*
X164672305Y-121311271D01*
X164672305Y-121311271D02*
X164719924Y-121275557D01*
X163815162Y-120846985D02*
X163815162Y-121346985D01*
X163815162Y-121596985D02*
X163862781Y-121561271D01*
X163862781Y-121561271D02*
X163815162Y-121525557D01*
X163815162Y-121525557D02*
X163767543Y-121561271D01*
X163767543Y-121561271D02*
X163815162Y-121596985D01*
X163815162Y-121596985D02*
X163815162Y-121525557D01*
G36*
X154194000Y-84341416D02*
G01*
X154194000Y-84543649D01*
X153418040Y-84543649D01*
X152393246Y-85289567D01*
X152393246Y-85036043D01*
X153242625Y-84442533D01*
X152393246Y-83849023D01*
X152393246Y-83595498D01*
X153418040Y-84341416D01*
X154194000Y-84341416D01*
G37*
G36*
X154194000Y-82697173D02*
G01*
X154104484Y-82704300D01*
X154098598Y-82704501D01*
X154008799Y-82705474D01*
X154002757Y-82705478D01*
X154002757Y-82711339D01*
X154075694Y-82772635D01*
X154091124Y-82789986D01*
X154145365Y-82868113D01*
X154160587Y-82896964D01*
X154196527Y-82989746D01*
X154205430Y-83022505D01*
X154221092Y-83120599D01*
X154222136Y-83152930D01*
X154216414Y-83257513D01*
X154195861Y-83361522D01*
X154154872Y-83458753D01*
X154102555Y-83527599D01*
X154027010Y-83585924D01*
X153935398Y-83625161D01*
X153840478Y-83644013D01*
X153760957Y-83648255D01*
X153012255Y-83648255D01*
X153012255Y-83462630D01*
X153671711Y-83462630D01*
X153759836Y-83458981D01*
X153847565Y-83446022D01*
X153933363Y-83415491D01*
X153975939Y-83388381D01*
X154037567Y-83315012D01*
X154054635Y-83278471D01*
X154077681Y-83178637D01*
X154081452Y-83105547D01*
X154071341Y-83026901D01*
X154040606Y-82934337D01*
X154015507Y-82890125D01*
X153953680Y-82818241D01*
X153877900Y-82762142D01*
X153791563Y-82725770D01*
X153700260Y-82709477D01*
X153623351Y-82705966D01*
X153012255Y-82705966D01*
X153012255Y-82520341D01*
X153933734Y-82520341D01*
X154024592Y-82517658D01*
X154055514Y-82515945D01*
X154143819Y-82510068D01*
X154194000Y-82506175D01*
X154194000Y-82697173D01*
G37*
G36*
X152702750Y-80305059D02*
G01*
X152628891Y-80378790D01*
X152576135Y-80467602D01*
X152544481Y-80571497D01*
X152534095Y-80674777D01*
X152533930Y-80690474D01*
X152541486Y-80787828D01*
X152553274Y-80845324D01*
X152587562Y-80938609D01*
X152612625Y-80982100D01*
X152678043Y-81053633D01*
X152715060Y-81078820D01*
X152802232Y-81110305D01*
X152862778Y-81115457D01*
X152953726Y-81102961D01*
X153036126Y-81057487D01*
X153054020Y-81039741D01*
X153112277Y-80960358D01*
X153157236Y-80871934D01*
X153165688Y-80851186D01*
X153199455Y-80756117D01*
X153227791Y-80662351D01*
X153243064Y-80604989D01*
X153271668Y-80507628D01*
X153306702Y-80416311D01*
X153333630Y-80358792D01*
X153385374Y-80273237D01*
X153449163Y-80199935D01*
X153482667Y-80170237D01*
X153561760Y-80123800D01*
X153650990Y-80100061D01*
X153735898Y-80094033D01*
X153829854Y-80103546D01*
X153915974Y-80132085D01*
X153953078Y-80151674D01*
X154031650Y-80209123D01*
X154098104Y-80280596D01*
X154114865Y-80303593D01*
X154166076Y-80390387D01*
X154205842Y-80485783D01*
X154215102Y-80514619D01*
X154237874Y-80609719D01*
X154249414Y-80712675D01*
X154250273Y-80749581D01*
X154245265Y-80851152D01*
X154230242Y-80949787D01*
X154205203Y-81045486D01*
X154186965Y-81097383D01*
X154144674Y-81186079D01*
X154089515Y-81266969D01*
X154021490Y-81340055D01*
X153978138Y-81377285D01*
X153856358Y-81194591D01*
X153932555Y-81133817D01*
X153995400Y-81056273D01*
X154019903Y-81014829D01*
X154057410Y-80922161D01*
X154077606Y-80817816D01*
X154081452Y-80741765D01*
X154072364Y-80641958D01*
X154060350Y-80589846D01*
X154023745Y-80496560D01*
X153997921Y-80453070D01*
X153935540Y-80382825D01*
X153896365Y-80353419D01*
X153809929Y-80318527D01*
X153758759Y-80313852D01*
X153669474Y-80326259D01*
X153605325Y-80357815D01*
X153536289Y-80423227D01*
X153502450Y-80473098D01*
X153460410Y-80559823D01*
X153433867Y-80636252D01*
X153406060Y-80729064D01*
X153378033Y-80824808D01*
X153348028Y-80920307D01*
X153314286Y-81013363D01*
X153270990Y-81104905D01*
X153223720Y-81176517D01*
X153157514Y-81244573D01*
X153086114Y-81291800D01*
X152999039Y-81323005D01*
X152908727Y-81334596D01*
X152878166Y-81335275D01*
X152785203Y-81327581D01*
X152694958Y-81301883D01*
X152650873Y-81280565D01*
X152572254Y-81225347D01*
X152506425Y-81156291D01*
X152489966Y-81134019D01*
X152440582Y-81049509D01*
X152403989Y-80955836D01*
X152395884Y-80927390D01*
X152374846Y-80825395D01*
X152365590Y-80721157D01*
X152365109Y-80690963D01*
X152369746Y-80588381D01*
X152383656Y-80491905D01*
X152409669Y-80392834D01*
X152412590Y-80384193D01*
X152453805Y-80291797D01*
X152506149Y-80211808D01*
X152572661Y-80135634D01*
X152580092Y-80128227D01*
X152702750Y-80305059D01*
G37*
G36*
X152280699Y-79759909D02*
G01*
X152280699Y-79574284D01*
X153203497Y-79574284D01*
X153203497Y-79568422D01*
X153130560Y-79507127D01*
X153115130Y-79489776D01*
X153061137Y-79411924D01*
X153046107Y-79383286D01*
X153009754Y-79290779D01*
X153000824Y-79258234D01*
X152985162Y-79159407D01*
X152984118Y-79126831D01*
X152989861Y-79022463D01*
X153010490Y-78918698D01*
X153051630Y-78821741D01*
X153104139Y-78753140D01*
X153179472Y-78694579D01*
X153270940Y-78655183D01*
X153365792Y-78636254D01*
X153445297Y-78631995D01*
X154194000Y-78631995D01*
X154194000Y-78817620D01*
X153534544Y-78817620D01*
X153441203Y-78822383D01*
X153350056Y-78839127D01*
X153265992Y-78871870D01*
X153230755Y-78893824D01*
X153166190Y-78968814D01*
X153133183Y-79069538D01*
X153124802Y-79174703D01*
X153134914Y-79253838D01*
X153165857Y-79345961D01*
X153191187Y-79390125D01*
X153252795Y-79462009D01*
X153328794Y-79518108D01*
X153414847Y-79554480D01*
X153506022Y-79570773D01*
X153582904Y-79574284D01*
X154194000Y-79574284D01*
X154194000Y-79759909D01*
X152280699Y-79759909D01*
G37*
G36*
X152547998Y-77934438D02*
G01*
X152632152Y-77969341D01*
X152639003Y-77976936D01*
X152674614Y-78069260D01*
X152641194Y-78159896D01*
X152639003Y-78162561D01*
X152558211Y-78204201D01*
X152547998Y-78204570D01*
X152463844Y-78170068D01*
X152456993Y-78162561D01*
X152421417Y-78072427D01*
X152421383Y-78069260D01*
X152456993Y-77976936D01*
X152537786Y-77934811D01*
X152547998Y-77934438D01*
G37*
G36*
X154194000Y-77976936D02*
G01*
X154194000Y-78162561D01*
X153012255Y-78162561D01*
X153012255Y-77976936D01*
X154194000Y-77976936D01*
G37*
D11*
X147954819Y-120488094D02*
X146954819Y-120488094D01*
X146954819Y-120488094D02*
X146954819Y-120249999D01*
X146954819Y-120249999D02*
X147002438Y-120107142D01*
X147002438Y-120107142D02*
X147097676Y-120011904D01*
X147097676Y-120011904D02*
X147192914Y-119964285D01*
X147192914Y-119964285D02*
X147383390Y-119916666D01*
X147383390Y-119916666D02*
X147526247Y-119916666D01*
X147526247Y-119916666D02*
X147716723Y-119964285D01*
X147716723Y-119964285D02*
X147811961Y-120011904D01*
X147811961Y-120011904D02*
X147907200Y-120107142D01*
X147907200Y-120107142D02*
X147954819Y-120249999D01*
X147954819Y-120249999D02*
X147954819Y-120488094D01*
X147288152Y-119059523D02*
X147954819Y-119059523D01*
X146907200Y-119297618D02*
X147621485Y-119535713D01*
X147621485Y-119535713D02*
X147621485Y-118916666D01*
X156954819Y-119666666D02*
X156478628Y-119999999D01*
X156954819Y-120238094D02*
X155954819Y-120238094D01*
X155954819Y-120238094D02*
X155954819Y-119857142D01*
X155954819Y-119857142D02*
X156002438Y-119761904D01*
X156002438Y-119761904D02*
X156050057Y-119714285D01*
X156050057Y-119714285D02*
X156145295Y-119666666D01*
X156145295Y-119666666D02*
X156288152Y-119666666D01*
X156288152Y-119666666D02*
X156383390Y-119714285D01*
X156383390Y-119714285D02*
X156431009Y-119761904D01*
X156431009Y-119761904D02*
X156478628Y-119857142D01*
X156478628Y-119857142D02*
X156478628Y-120238094D01*
X155954819Y-118761904D02*
X155954819Y-119238094D01*
X155954819Y-119238094D02*
X156431009Y-119285713D01*
X156431009Y-119285713D02*
X156383390Y-119238094D01*
X156383390Y-119238094D02*
X156335771Y-119142856D01*
X156335771Y-119142856D02*
X156335771Y-118904761D01*
X156335771Y-118904761D02*
X156383390Y-118809523D01*
X156383390Y-118809523D02*
X156431009Y-118761904D01*
X156431009Y-118761904D02*
X156526247Y-118714285D01*
X156526247Y-118714285D02*
X156764342Y-118714285D01*
X156764342Y-118714285D02*
X156859580Y-118761904D01*
X156859580Y-118761904D02*
X156907200Y-118809523D01*
X156907200Y-118809523D02*
X156954819Y-118904761D01*
X156954819Y-118904761D02*
X156954819Y-119142856D01*
X156954819Y-119142856D02*
X156907200Y-119238094D01*
X156907200Y-119238094D02*
X156859580Y-119285713D01*
X166416667Y-113657200D02*
X166559524Y-113704819D01*
X166559524Y-113704819D02*
X166797619Y-113704819D01*
X166797619Y-113704819D02*
X166892857Y-113657200D01*
X166892857Y-113657200D02*
X166940476Y-113609580D01*
X166940476Y-113609580D02*
X166988095Y-113514342D01*
X166988095Y-113514342D02*
X166988095Y-113419104D01*
X166988095Y-113419104D02*
X166940476Y-113323866D01*
X166940476Y-113323866D02*
X166892857Y-113276247D01*
X166892857Y-113276247D02*
X166797619Y-113228628D01*
X166797619Y-113228628D02*
X166607143Y-113181009D01*
X166607143Y-113181009D02*
X166511905Y-113133390D01*
X166511905Y-113133390D02*
X166464286Y-113085771D01*
X166464286Y-113085771D02*
X166416667Y-112990533D01*
X166416667Y-112990533D02*
X166416667Y-112895295D01*
X166416667Y-112895295D02*
X166464286Y-112800057D01*
X166464286Y-112800057D02*
X166511905Y-112752438D01*
X166511905Y-112752438D02*
X166607143Y-112704819D01*
X166607143Y-112704819D02*
X166845238Y-112704819D01*
X166845238Y-112704819D02*
X166988095Y-112752438D01*
X167321429Y-112704819D02*
X167559524Y-113704819D01*
X167559524Y-113704819D02*
X167750000Y-112990533D01*
X167750000Y-112990533D02*
X167940476Y-113704819D01*
X167940476Y-113704819D02*
X168178572Y-112704819D01*
X169083333Y-113704819D02*
X168511905Y-113704819D01*
X168797619Y-113704819D02*
X168797619Y-112704819D01*
X168797619Y-112704819D02*
X168702381Y-112847676D01*
X168702381Y-112847676D02*
X168607143Y-112942914D01*
X168607143Y-112942914D02*
X168511905Y-112990533D01*
X161964285Y-113681009D02*
X162107142Y-113728628D01*
X162107142Y-113728628D02*
X162154761Y-113776247D01*
X162154761Y-113776247D02*
X162202380Y-113871485D01*
X162202380Y-113871485D02*
X162202380Y-114014342D01*
X162202380Y-114014342D02*
X162154761Y-114109580D01*
X162154761Y-114109580D02*
X162107142Y-114157200D01*
X162107142Y-114157200D02*
X162011904Y-114204819D01*
X162011904Y-114204819D02*
X161630952Y-114204819D01*
X161630952Y-114204819D02*
X161630952Y-113204819D01*
X161630952Y-113204819D02*
X161964285Y-113204819D01*
X161964285Y-113204819D02*
X162059523Y-113252438D01*
X162059523Y-113252438D02*
X162107142Y-113300057D01*
X162107142Y-113300057D02*
X162154761Y-113395295D01*
X162154761Y-113395295D02*
X162154761Y-113490533D01*
X162154761Y-113490533D02*
X162107142Y-113585771D01*
X162107142Y-113585771D02*
X162059523Y-113633390D01*
X162059523Y-113633390D02*
X161964285Y-113681009D01*
X161964285Y-113681009D02*
X161630952Y-113681009D01*
X162488095Y-113204819D02*
X163059523Y-113204819D01*
X162773809Y-114204819D02*
X162773809Y-113204819D01*
X163916666Y-114204819D02*
X163345238Y-114204819D01*
X163630952Y-114204819D02*
X163630952Y-113204819D01*
X163630952Y-113204819D02*
X163535714Y-113347676D01*
X163535714Y-113347676D02*
X163440476Y-113442914D01*
X163440476Y-113442914D02*
X163345238Y-113490533D01*
D12*
%TO.C,D4*%
X149955000Y-120080000D02*
X153045000Y-120080000D01*
X149955170Y-120080000D02*
G75*
G02*
X151499952Y-114530000I1544830J2560000D01*
G01*
X151500048Y-114530000D02*
G75*
G02*
X153044830Y-120080000I-48J-2990000D01*
G01*
X154000000Y-117520000D02*
G75*
G02*
X149000000Y-117520000I-2500000J0D01*
G01*
X149000000Y-117520000D02*
G75*
G02*
X154000000Y-117520000I2500000J0D01*
G01*
%TO.C,Humidity1*%
X171700000Y-125150000D02*
X144300000Y-125150000D01*
X171700000Y-97850000D02*
X171700000Y-125150000D01*
X171162000Y-117770000D02*
X171162000Y-101133000D01*
X171162000Y-101133000D02*
X170908000Y-101145000D01*
X167822000Y-117745000D02*
X171162000Y-117770000D01*
X167822000Y-117745000D02*
X144722000Y-117745000D01*
X167822000Y-101145000D02*
X170908000Y-101145000D01*
X162780000Y-100752000D02*
X153001000Y-100752000D01*
X162780000Y-98339000D02*
X162780000Y-100752000D01*
X153001000Y-98339000D02*
X162780000Y-98339000D01*
X153001000Y-98339000D02*
X153001000Y-100752000D01*
X144722000Y-117745000D02*
X144722000Y-101145000D01*
X144722000Y-101145000D02*
X167822000Y-101145000D01*
X144300000Y-125150000D02*
X144300000Y-97850000D01*
X144300000Y-97850000D02*
X171700000Y-97850000D01*
%TO.C,R5*%
X157380000Y-110900000D02*
X157380000Y-117440000D01*
X157380000Y-117440000D02*
X160120000Y-117440000D01*
X158750000Y-110130000D02*
X158750000Y-110900000D01*
X158750000Y-118210000D02*
X158750000Y-117440000D01*
X160120000Y-110900000D02*
X157380000Y-110900000D01*
X160120000Y-117440000D02*
X160120000Y-110900000D01*
%TO.C,SW1*%
X166670000Y-104420000D02*
X168000000Y-104420000D01*
X166670000Y-105750000D02*
X166670000Y-104420000D01*
X166670000Y-107020000D02*
X166670000Y-112160000D01*
X166670000Y-107020000D02*
X169330000Y-107020000D01*
X166670000Y-112160000D02*
X169330000Y-112160000D01*
X169330000Y-107020000D02*
X169330000Y-112160000D01*
D10*
%TO.C,U3*%
X154320000Y-76130000D02*
X154320000Y-79940000D01*
X154320000Y-79940000D02*
X161940000Y-79940000D01*
X161940000Y-79940000D02*
X161940000Y-76130000D01*
D12*
%TO.C,BT1*%
X161940000Y-114840000D02*
X161940000Y-119560000D01*
X161940000Y-116950000D02*
X162550000Y-116950000D01*
X161940000Y-118250000D02*
X162550000Y-118250000D01*
X161940000Y-119560000D02*
X168060000Y-119560000D01*
X162550000Y-115450000D02*
X162550000Y-118950000D01*
X162550000Y-118950000D02*
X164500000Y-118950000D01*
X164500000Y-118950000D02*
X164500000Y-119560000D01*
X164900000Y-115950000D02*
X164900000Y-115450000D01*
X165000000Y-115450000D02*
X165000000Y-115950000D01*
X165100000Y-115450000D02*
X165100000Y-115950000D01*
X165100000Y-115950000D02*
X164900000Y-115950000D01*
X165500000Y-118950000D02*
X167450000Y-118950000D01*
X165500000Y-119560000D02*
X165500000Y-118950000D01*
X166300000Y-119560000D02*
X166300000Y-119760000D01*
X166300000Y-119660000D02*
X166600000Y-119660000D01*
X166300000Y-119760000D02*
X166600000Y-119760000D01*
X166600000Y-119760000D02*
X166600000Y-119560000D01*
X167110000Y-119860000D02*
X168360000Y-119860000D01*
X167450000Y-115450000D02*
X162550000Y-115450000D01*
X167450000Y-118950000D02*
X167450000Y-115450000D01*
X168060000Y-114840000D02*
X161940000Y-114840000D01*
X168060000Y-116950000D02*
X167450000Y-116950000D01*
X168060000Y-118250000D02*
X167450000Y-118250000D01*
X168060000Y-119560000D02*
X168060000Y-114840000D01*
X168360000Y-119860000D02*
X168360000Y-118610000D01*
%TD*%
M02*
