M48
; DRILL file {KiCad 8.0.8} date 2025-02-27T00:19:40-0800
; FORMAT={-:-/ absolute / inch / decimal}
; #@! TF.CreationDate,2025-02-27T00:19:40-08:00
; #@! TF.GenerationSoftware,Kicad,Pcbnew,8.0.8
; #@! TF.FileFunction,Plated,1,2,PTH
FMAT,2
INCH
; #@! TA.AperFunction,Plated,PTH,ComponentDrill
T1C0.0295
; #@! TA.AperFunction,Plated,PTH,ComponentDrill
T2C0.0315
; #@! TA.AperFunction,Plated,PTH,ComponentDrill
T3C0.0354
; #@! TA.AperFunction,Plated,PTH,ComponentDrill
T4C0.0394
; #@! TA.AperFunction,Plated,PTH,ComponentDrill
T5C0.0400
%
G90
G05
T1
X6.4567Y-4.6358
X6.5354Y-4.6358
T2
X6.25Y-4.2949
X6.25Y-4.6949
T3
X5.9646Y-4.5768
X5.9646Y-4.6768
T4
X6.0661Y-3.9193
X6.1661Y-3.9193
X6.2661Y-3.9193
X6.3661Y-3.9193
X6.6142Y-4.1634
X6.6142Y-4.2634
X6.6142Y-4.3634
T5
X5.9256Y-3.0972
X5.9256Y-3.1972
X5.9256Y-3.2972
X5.9256Y-3.3972
X5.9256Y-3.4972
X5.9256Y-3.5972
X5.9256Y-3.6972
X6.5256Y-3.0972
X6.5256Y-3.1972
X6.5256Y-3.2972
X6.5256Y-3.3972
X6.5256Y-3.4972
X6.5256Y-3.5972
X6.5256Y-3.6972
M30
