%TF.GenerationSoftware,KiCad,Pcbnew,8.0.8*%
%TF.CreationDate,2025-02-12T17:19:00-08:00*%
%TF.ProjectId,Lab3v2,4c616233-7632-42e6-9b69-6361645f7063,V1*%
%TF.SameCoordinates,Original*%
%TF.FileFunction,Copper,L2,Bot*%
%TF.FilePolarity,Positive*%
%FSLAX46Y46*%
G04 Gerber Fmt 4.6, Leading zero omitted, Abs format (unit mm)*
G04 Created by KiCad (PCBNEW 8.0.8) date 2025-02-12 17:19:00*
%MOMM*%
%LPD*%
G01*
G04 APERTURE LIST*
G04 Aperture macros list*
%AMRoundRect*
0 Rectangle with rounded corners*
0 $1 Rounding radius*
0 $2 $3 $4 $5 $6 $7 $8 $9 X,Y pos of 4 corners*
0 Add a 4 corners polygon primitive as box body*
4,1,4,$2,$3,$4,$5,$6,$7,$8,$9,$2,$3,0*
0 Add four circle primitives for the rounded corners*
1,1,$1+$1,$2,$3*
1,1,$1+$1,$4,$5*
1,1,$1+$1,$6,$7*
1,1,$1+$1,$8,$9*
0 Add four rect primitives between the rounded corners*
20,1,$1+$1,$2,$3,$4,$5,0*
20,1,$1+$1,$4,$5,$6,$7,0*
20,1,$1+$1,$6,$7,$8,$9,0*
20,1,$1+$1,$8,$9,$2,$3,0*%
G04 Aperture macros list end*
%TA.AperFunction,ComponentPad*%
%ADD10R,1.700000X1.700000*%
%TD*%
%TA.AperFunction,ComponentPad*%
%ADD11O,1.700000X1.700000*%
%TD*%
%TA.AperFunction,ComponentPad*%
%ADD12O,2.000000X1.600000*%
%TD*%
%TA.AperFunction,ComponentPad*%
%ADD13C,1.700000*%
%TD*%
%TA.AperFunction,ComponentPad*%
%ADD14O,3.556000X1.778000*%
%TD*%
%TA.AperFunction,ComponentPad*%
%ADD15RoundRect,0.250000X0.625000X-0.350000X0.625000X0.350000X-0.625000X0.350000X-0.625000X-0.350000X0*%
%TD*%
%TA.AperFunction,ComponentPad*%
%ADD16O,1.750000X1.200000*%
%TD*%
%TA.AperFunction,ViaPad*%
%ADD17C,1.600000*%
%TD*%
%TA.AperFunction,Conductor*%
%ADD18C,0.200000*%
%TD*%
G04 APERTURE END LIST*
D10*
%TO.P,SW1,1,A*%
%TO.N,Net-(Brd1-VCC)*%
X109250000Y-115330000D03*
D11*
%TO.P,SW1,2,B*%
%TO.N,Net-(BT1-+)*%
X109250000Y-112790000D03*
%TO.P,SW1,3,C*%
%TO.N,unconnected-(SW1-C-Pad3)*%
X109250000Y-110250000D03*
%TD*%
D12*
%TO.P,Brd1,1,GND*%
%TO.N,GND*%
X139900000Y-113720000D03*
%TO.P,Brd1,2,VCC*%
%TO.N,Net-(Brd1-VCC)*%
X139900000Y-111180000D03*
%TO.P,Brd1,3,SCL*%
%TO.N,Net-(Brd1-SCL)*%
X139900000Y-108640000D03*
%TO.P,Brd1,4,SDA*%
%TO.N,Net-(Brd1-SDA)*%
X139900000Y-106100000D03*
%TD*%
D13*
%TO.P,M1,1*%
%TO.N,Net-(U3-PA02_A0_D0)*%
X119380000Y-76140000D03*
%TO.P,M1,2,-*%
%TO.N,Net-(M1--)*%
X127000000Y-76140000D03*
%TO.P,M1,3*%
%TO.N,Net-(U3-PA10_A2_D2)*%
X127000000Y-99000000D03*
%TO.P,M1,4*%
%TO.N,Net-(U3-PA11_A3_D3)*%
X119380000Y-99000000D03*
%TD*%
D14*
%TO.P,U3,1,PA02_A0_D0*%
%TO.N,Net-(U3-PA02_A0_D0)*%
X141998000Y-76300000D03*
%TO.P,U3,2,PA4_A1_D1*%
%TO.N,Net-(M1--)*%
X141998000Y-78840000D03*
%TO.P,U3,3,PA10_A2_D2*%
%TO.N,Net-(U3-PA10_A2_D2)*%
X141998000Y-81380000D03*
%TO.P,U3,4,PA11_A3_D3*%
%TO.N,Net-(U3-PA11_A3_D3)*%
X141998000Y-83920000D03*
%TO.P,U3,5,PA8_A4_D4_SDA*%
%TO.N,Net-(Brd1-SDA)*%
X141998000Y-86460000D03*
%TO.P,U3,6,PA9_A5_D5_SCL*%
%TO.N,Net-(Brd1-SCL)*%
X141998000Y-89000000D03*
%TO.P,U3,7,PB08_A6_D6_TX*%
%TO.N,unconnected-(U3-PB08_A6_D6_TX-Pad7)*%
X141998000Y-91540000D03*
%TO.P,U3,8,5V*%
%TO.N,Net-(Brd1-VCC)*%
X158762000Y-76300000D03*
%TO.P,U3,9,GND*%
%TO.N,GND*%
X158762000Y-78840000D03*
%TO.P,U3,10,3V3*%
%TO.N,unconnected-(U3-3V3-Pad10)*%
X158762000Y-81380000D03*
%TO.P,U3,11,PA6_A10_D10_MOSI*%
%TO.N,Net-(D4-A)*%
X158762000Y-83920000D03*
%TO.P,U3,12,PA5_A9_D9_MISO*%
%TO.N,unconnected-(U3-PA5_A9_D9_MISO-Pad12)*%
X158762000Y-86460000D03*
%TO.P,U3,13,PA7_A8_D8_SCK*%
%TO.N,unconnected-(U3-PA7_A8_D8_SCK-Pad13)*%
X158762000Y-89000000D03*
%TO.P,U3,14,PB09_A7_D7_RX*%
%TO.N,unconnected-(U3-PB09_A7_D7_RX-Pad14)*%
X158762000Y-91540000D03*
%TD*%
D15*
%TO.P,BT1,1,+*%
%TO.N,Net-(BT1-+)*%
X165000000Y-86000000D03*
D16*
%TO.P,BT1,2,-*%
%TO.N,GND*%
X165000000Y-84000000D03*
%TD*%
D17*
%TO.N,Net-(Brd1-SDA)*%
X136000000Y-107750000D03*
%TO.N,Net-(Brd1-SCL)*%
X152000000Y-85250000D03*
X152000000Y-91500000D03*
X145250000Y-103250000D03*
X152000000Y-101000000D03*
%TO.N,Net-(Brd1-VCC)*%
X149500000Y-93500000D03*
X155500000Y-76250000D03*
X130000000Y-116500000D03*
X136750000Y-111250000D03*
%TO.N,Net-(BT1-+)*%
X165000000Y-92250000D03*
X134250000Y-103250000D03*
%TO.N,Net-(U3-PA11_A3_D3)*%
X137000000Y-84000000D03*
X129500000Y-84000000D03*
%TD*%
D18*
%TO.N,Net-(Brd1-SCL)*%
X149750000Y-103250000D02*
X152000000Y-101000000D01*
X145250000Y-103250000D02*
X149750000Y-103250000D01*
%TO.N,Net-(BT1-+)*%
X162000000Y-95250000D02*
X165000000Y-92250000D01*
X142250000Y-95250000D02*
X162000000Y-95250000D01*
X134250000Y-103250000D02*
X142250000Y-95250000D01*
%TO.N,Net-(Brd1-SDA)*%
X136250000Y-96500000D02*
X136250000Y-89000000D01*
X136250000Y-89000000D02*
X138790000Y-86460000D01*
X138790000Y-86460000D02*
X142760000Y-86460000D01*
X130900000Y-101850000D02*
X136250000Y-96500000D01*
X136000000Y-107750000D02*
X132694365Y-107750000D01*
X132694365Y-107750000D02*
X130900000Y-105955635D01*
X130900000Y-105955635D02*
X130900000Y-101850000D01*
%TO.N,Net-(Brd1-SCL)*%
X152000000Y-91500000D02*
X152000000Y-85250000D01*
%TO.N,Net-(Brd1-VCC)*%
X149500000Y-82250000D02*
X155500000Y-76250000D01*
X149500000Y-93500000D02*
X149500000Y-82250000D01*
X131500000Y-116500000D02*
X136750000Y-111250000D01*
X130000000Y-116500000D02*
X131500000Y-116500000D01*
%TO.N,Net-(U3-PA11_A3_D3)*%
X129500000Y-84000000D02*
X137000000Y-84000000D01*
%TD*%
%TA.AperFunction,Conductor*%
%TO.N,GND*%
G36*
X171442539Y-68020185D02*
G01*
X171488294Y-68072989D01*
X171499500Y-68124500D01*
X171499500Y-125625500D01*
X171479815Y-125692539D01*
X171427011Y-125738294D01*
X171375500Y-125749500D01*
X104124500Y-125749500D01*
X104057461Y-125729815D01*
X104011706Y-125677011D01*
X104000500Y-125625500D01*
X104000500Y-110249999D01*
X107894341Y-110249999D01*
X107894341Y-110250000D01*
X107914936Y-110485403D01*
X107914938Y-110485413D01*
X107976094Y-110713655D01*
X107976096Y-110713659D01*
X107976097Y-110713663D01*
X108017990Y-110803502D01*
X108075965Y-110927830D01*
X108075967Y-110927834D01*
X108211501Y-111121395D01*
X108211506Y-111121402D01*
X108378597Y-111288493D01*
X108378603Y-111288498D01*
X108564158Y-111418425D01*
X108607783Y-111473002D01*
X108614977Y-111542500D01*
X108583454Y-111604855D01*
X108564158Y-111621575D01*
X108378597Y-111751505D01*
X108211505Y-111918597D01*
X108075965Y-112112169D01*
X108075964Y-112112171D01*
X107976098Y-112326335D01*
X107976094Y-112326344D01*
X107914938Y-112554586D01*
X107914936Y-112554596D01*
X107894341Y-112789999D01*
X107894341Y-112790000D01*
X107914936Y-113025403D01*
X107914938Y-113025413D01*
X107976094Y-113253655D01*
X107976096Y-113253659D01*
X107976097Y-113253663D01*
X108050394Y-113412993D01*
X108075965Y-113467830D01*
X108075967Y-113467834D01*
X108077484Y-113470000D01*
X108211501Y-113661396D01*
X108211506Y-113661402D01*
X108333430Y-113783326D01*
X108366915Y-113844649D01*
X108361931Y-113914341D01*
X108320059Y-113970274D01*
X108289083Y-113987189D01*
X108157669Y-114036203D01*
X108157664Y-114036206D01*
X108042455Y-114122452D01*
X108042452Y-114122455D01*
X107956206Y-114237664D01*
X107956202Y-114237671D01*
X107905908Y-114372517D01*
X107902809Y-114401349D01*
X107899501Y-114432123D01*
X107899500Y-114432135D01*
X107899500Y-116227870D01*
X107899501Y-116227876D01*
X107905908Y-116287483D01*
X107956202Y-116422328D01*
X107956206Y-116422335D01*
X108042452Y-116537544D01*
X108042455Y-116537547D01*
X108157664Y-116623793D01*
X108157671Y-116623797D01*
X108292517Y-116674091D01*
X108292516Y-116674091D01*
X108299444Y-116674835D01*
X108352127Y-116680500D01*
X110147872Y-116680499D01*
X110207483Y-116674091D01*
X110342331Y-116623796D01*
X110457546Y-116537546D01*
X110485654Y-116499998D01*
X128694532Y-116499998D01*
X128694532Y-116500001D01*
X128714364Y-116726686D01*
X128714366Y-116726697D01*
X128773258Y-116946488D01*
X128773261Y-116946497D01*
X128869431Y-117152732D01*
X128869432Y-117152734D01*
X128999954Y-117339141D01*
X129160858Y-117500045D01*
X129160861Y-117500047D01*
X129347266Y-117630568D01*
X129553504Y-117726739D01*
X129773308Y-117785635D01*
X129935230Y-117799801D01*
X129999998Y-117805468D01*
X130000000Y-117805468D01*
X130000002Y-117805468D01*
X130056673Y-117800509D01*
X130226692Y-117785635D01*
X130446496Y-117726739D01*
X130652734Y-117630568D01*
X130839139Y-117500047D01*
X131000047Y-117339139D01*
X131130118Y-117153375D01*
X131184693Y-117109752D01*
X131231692Y-117100500D01*
X131413331Y-117100500D01*
X131413347Y-117100501D01*
X131420943Y-117100501D01*
X131579054Y-117100501D01*
X131579057Y-117100501D01*
X131731785Y-117059577D01*
X131781904Y-117030639D01*
X131868716Y-116980520D01*
X131980520Y-116868716D01*
X131980520Y-116868714D01*
X131990728Y-116858507D01*
X131990730Y-116858504D01*
X136307294Y-112541939D01*
X136368615Y-112508456D01*
X136427066Y-112509847D01*
X136438050Y-112512790D01*
X136523308Y-112535635D01*
X136685230Y-112549801D01*
X136749998Y-112555468D01*
X136750000Y-112555468D01*
X136750002Y-112555468D01*
X136806673Y-112550509D01*
X136976692Y-112535635D01*
X137196496Y-112476739D01*
X137402734Y-112380568D01*
X137589139Y-112250047D01*
X137750047Y-112089139D01*
X137880568Y-111902734D01*
X137976739Y-111696496D01*
X138035635Y-111476692D01*
X138055468Y-111250000D01*
X138035635Y-111023308D01*
X137976739Y-110803504D01*
X137880568Y-110597266D01*
X137750047Y-110410861D01*
X137750045Y-110410858D01*
X137589141Y-110249954D01*
X137402734Y-110119432D01*
X137402732Y-110119431D01*
X137196497Y-110023261D01*
X137196488Y-110023258D01*
X136976697Y-109964366D01*
X136976693Y-109964365D01*
X136976692Y-109964365D01*
X136976691Y-109964364D01*
X136976686Y-109964364D01*
X136750002Y-109944532D01*
X136749998Y-109944532D01*
X136523313Y-109964364D01*
X136523302Y-109964366D01*
X136303511Y-110023258D01*
X136303502Y-110023261D01*
X136097267Y-110119431D01*
X136097265Y-110119432D01*
X135910858Y-110249954D01*
X135749954Y-110410858D01*
X135619432Y-110597265D01*
X135619431Y-110597267D01*
X135523261Y-110803502D01*
X135523258Y-110803511D01*
X135464366Y-111023302D01*
X135464364Y-111023313D01*
X135444532Y-111249998D01*
X135444532Y-111250001D01*
X135464364Y-111476686D01*
X135464366Y-111476697D01*
X135490152Y-111572931D01*
X135488489Y-111642781D01*
X135458058Y-111692705D01*
X131306281Y-115844483D01*
X131244958Y-115877968D01*
X131175266Y-115872984D01*
X131119333Y-115831112D01*
X131117025Y-115827925D01*
X131000045Y-115660858D01*
X130839141Y-115499954D01*
X130652734Y-115369432D01*
X130652732Y-115369431D01*
X130446497Y-115273261D01*
X130446488Y-115273258D01*
X130226697Y-115214366D01*
X130226693Y-115214365D01*
X130226692Y-115214365D01*
X130226691Y-115214364D01*
X130226686Y-115214364D01*
X130000002Y-115194532D01*
X129999998Y-115194532D01*
X129773313Y-115214364D01*
X129773302Y-115214366D01*
X129553511Y-115273258D01*
X129553502Y-115273261D01*
X129347267Y-115369431D01*
X129347265Y-115369432D01*
X129160858Y-115499954D01*
X128999954Y-115660858D01*
X128869432Y-115847265D01*
X128869431Y-115847267D01*
X128773261Y-116053502D01*
X128773258Y-116053511D01*
X128714366Y-116273302D01*
X128714364Y-116273313D01*
X128694532Y-116499998D01*
X110485654Y-116499998D01*
X110543796Y-116422331D01*
X110594091Y-116287483D01*
X110600500Y-116227873D01*
X110600499Y-114432128D01*
X110594091Y-114372517D01*
X110543796Y-114237669D01*
X110543795Y-114237668D01*
X110543793Y-114237664D01*
X110457547Y-114122455D01*
X110457544Y-114122452D01*
X110342335Y-114036206D01*
X110342328Y-114036202D01*
X110210917Y-113987189D01*
X110154983Y-113945318D01*
X110130566Y-113879853D01*
X110145418Y-113811580D01*
X110166563Y-113783332D01*
X110288495Y-113661401D01*
X110424035Y-113467830D01*
X110523903Y-113253663D01*
X110585063Y-113025408D01*
X110605659Y-112790000D01*
X110585063Y-112554592D01*
X110523903Y-112326337D01*
X110424035Y-112112171D01*
X110407910Y-112089141D01*
X110288494Y-111918597D01*
X110121402Y-111751506D01*
X110121396Y-111751501D01*
X109935842Y-111621575D01*
X109892217Y-111566998D01*
X109885023Y-111497500D01*
X109916546Y-111435145D01*
X109935842Y-111418425D01*
X109958026Y-111402891D01*
X110121401Y-111288495D01*
X110288495Y-111121401D01*
X110424035Y-110927830D01*
X110523903Y-110713663D01*
X110585063Y-110485408D01*
X110605659Y-110250000D01*
X110585063Y-110014592D01*
X110523903Y-109786337D01*
X110424035Y-109572171D01*
X110364552Y-109487219D01*
X110288494Y-109378597D01*
X110121402Y-109211506D01*
X110121395Y-109211501D01*
X109927834Y-109075967D01*
X109927830Y-109075965D01*
X109841338Y-109035633D01*
X109713663Y-108976097D01*
X109713659Y-108976096D01*
X109713655Y-108976094D01*
X109485413Y-108914938D01*
X109485403Y-108914936D01*
X109250001Y-108894341D01*
X109249999Y-108894341D01*
X109014596Y-108914936D01*
X109014586Y-108914938D01*
X108786344Y-108976094D01*
X108786337Y-108976096D01*
X108786337Y-108976097D01*
X108784960Y-108976739D01*
X108572171Y-109075964D01*
X108572169Y-109075965D01*
X108378597Y-109211505D01*
X108211505Y-109378597D01*
X108075965Y-109572169D01*
X108075964Y-109572171D01*
X107976098Y-109786335D01*
X107976094Y-109786344D01*
X107914938Y-110014586D01*
X107914936Y-110014596D01*
X107894341Y-110249999D01*
X104000500Y-110249999D01*
X104000500Y-106034689D01*
X130299498Y-106034689D01*
X130299499Y-106034692D01*
X130340423Y-106187420D01*
X130340424Y-106187422D01*
X130340423Y-106187422D01*
X130346844Y-106198542D01*
X130346845Y-106198543D01*
X130419477Y-106324347D01*
X130419481Y-106324352D01*
X130538349Y-106443220D01*
X130538355Y-106443225D01*
X132209504Y-108114374D01*
X132209514Y-108114385D01*
X132213844Y-108118715D01*
X132213845Y-108118716D01*
X132325649Y-108230520D01*
X132412460Y-108280639D01*
X132412462Y-108280641D01*
X132462578Y-108309576D01*
X132462580Y-108309577D01*
X132615307Y-108350500D01*
X132615308Y-108350500D01*
X134768308Y-108350500D01*
X134835347Y-108370185D01*
X134869880Y-108403374D01*
X134955480Y-108525624D01*
X134999954Y-108589141D01*
X135160858Y-108750045D01*
X135160861Y-108750047D01*
X135347266Y-108880568D01*
X135553504Y-108976739D01*
X135773308Y-109035635D01*
X135935230Y-109049801D01*
X135999998Y-109055468D01*
X136000000Y-109055468D01*
X136000002Y-109055468D01*
X136056673Y-109050509D01*
X136226692Y-109035635D01*
X136446496Y-108976739D01*
X136652734Y-108880568D01*
X136839139Y-108750047D01*
X137000047Y-108589139D01*
X137130568Y-108402734D01*
X137226739Y-108196496D01*
X137285635Y-107976692D01*
X137305468Y-107750000D01*
X137285635Y-107523308D01*
X137226739Y-107303504D01*
X137130568Y-107097266D01*
X137000047Y-106910861D01*
X137000045Y-106910858D01*
X136839141Y-106749954D01*
X136652734Y-106619432D01*
X136652732Y-106619431D01*
X136446497Y-106523261D01*
X136446488Y-106523258D01*
X136226697Y-106464366D01*
X136226693Y-106464365D01*
X136226692Y-106464365D01*
X136226691Y-106464364D01*
X136226686Y-106464364D01*
X136000002Y-106444532D01*
X135999998Y-106444532D01*
X135773313Y-106464364D01*
X135773302Y-106464366D01*
X135553511Y-106523258D01*
X135553502Y-106523261D01*
X135347267Y-106619431D01*
X135347265Y-106619432D01*
X135160858Y-106749954D01*
X134999954Y-106910858D01*
X134923450Y-107020118D01*
X134869881Y-107096624D01*
X134815307Y-107140248D01*
X134768308Y-107149500D01*
X132994462Y-107149500D01*
X132927423Y-107129815D01*
X132906781Y-107113181D01*
X131791248Y-105997648D01*
X138399500Y-105997648D01*
X138399500Y-106202351D01*
X138431522Y-106404534D01*
X138494781Y-106599223D01*
X138558691Y-106724653D01*
X138571583Y-106749954D01*
X138587715Y-106781613D01*
X138708028Y-106947213D01*
X138852786Y-107091971D01*
X139007749Y-107204556D01*
X139018390Y-107212287D01*
X139109840Y-107258883D01*
X139111080Y-107259515D01*
X139161876Y-107307490D01*
X139178671Y-107375311D01*
X139156134Y-107441446D01*
X139111080Y-107480485D01*
X139018386Y-107527715D01*
X138852786Y-107648028D01*
X138708028Y-107792786D01*
X138587715Y-107958386D01*
X138494781Y-108140776D01*
X138431522Y-108335465D01*
X138399500Y-108537648D01*
X138399500Y-108742352D01*
X138400719Y-108750047D01*
X138431522Y-108944534D01*
X138494781Y-109139223D01*
X138587715Y-109321613D01*
X138708028Y-109487213D01*
X138852786Y-109631971D01*
X139007749Y-109744556D01*
X139018390Y-109752287D01*
X139085213Y-109786335D01*
X139111080Y-109799515D01*
X139161876Y-109847490D01*
X139178671Y-109915311D01*
X139156134Y-109981446D01*
X139111080Y-110020485D01*
X139018386Y-110067715D01*
X138852786Y-110188028D01*
X138708028Y-110332786D01*
X138587715Y-110498386D01*
X138494781Y-110680776D01*
X138431522Y-110875465D01*
X138408106Y-111023313D01*
X138399500Y-111077648D01*
X138399500Y-111282352D01*
X138403878Y-111309995D01*
X138431522Y-111484534D01*
X138494781Y-111679223D01*
X138587715Y-111861613D01*
X138708028Y-112027213D01*
X138852786Y-112171971D01*
X138960248Y-112250045D01*
X139018390Y-112292287D01*
X139085213Y-112326335D01*
X139111629Y-112339795D01*
X139162425Y-112387770D01*
X139179220Y-112455591D01*
X139156682Y-112521726D01*
X139111629Y-112560765D01*
X139018650Y-112608140D01*
X138853105Y-112728417D01*
X138853104Y-112728417D01*
X138708417Y-112873104D01*
X138708417Y-112873105D01*
X138588140Y-113038650D01*
X138495244Y-113220970D01*
X138432009Y-113415586D01*
X138423391Y-113470000D01*
X139466988Y-113470000D01*
X139434075Y-113527007D01*
X139400000Y-113654174D01*
X139400000Y-113785826D01*
X139434075Y-113912993D01*
X139466988Y-113970000D01*
X138423391Y-113970000D01*
X138432009Y-114024413D01*
X138495244Y-114219029D01*
X138588140Y-114401349D01*
X138708417Y-114566894D01*
X138708417Y-114566895D01*
X138853104Y-114711582D01*
X139018650Y-114831859D01*
X139200968Y-114924755D01*
X139395582Y-114987990D01*
X139597683Y-115020000D01*
X139650000Y-115020000D01*
X139650000Y-114153012D01*
X139707007Y-114185925D01*
X139834174Y-114220000D01*
X139965826Y-114220000D01*
X140092993Y-114185925D01*
X140150000Y-114153012D01*
X140150000Y-115020000D01*
X140202317Y-115020000D01*
X140404417Y-114987990D01*
X140599031Y-114924755D01*
X140781349Y-114831859D01*
X140946894Y-114711582D01*
X140946895Y-114711582D01*
X141091582Y-114566895D01*
X141091582Y-114566894D01*
X141211859Y-114401349D01*
X141304755Y-114219029D01*
X141367990Y-114024413D01*
X141376609Y-113970000D01*
X140333012Y-113970000D01*
X140365925Y-113912993D01*
X140400000Y-113785826D01*
X140400000Y-113654174D01*
X140365925Y-113527007D01*
X140333012Y-113470000D01*
X141376609Y-113470000D01*
X141367990Y-113415586D01*
X141304755Y-113220970D01*
X141211859Y-113038650D01*
X141091582Y-112873105D01*
X141091582Y-112873104D01*
X140946895Y-112728417D01*
X140781349Y-112608140D01*
X140688370Y-112560765D01*
X140637574Y-112512790D01*
X140620779Y-112444969D01*
X140643316Y-112378835D01*
X140688370Y-112339795D01*
X140714769Y-112326344D01*
X140781610Y-112292287D01*
X140839752Y-112250045D01*
X140947213Y-112171971D01*
X140947215Y-112171968D01*
X140947219Y-112171966D01*
X141091966Y-112027219D01*
X141091968Y-112027215D01*
X141091971Y-112027213D01*
X141170884Y-111918597D01*
X141212287Y-111861610D01*
X141305220Y-111679219D01*
X141368477Y-111484534D01*
X141400500Y-111282352D01*
X141400500Y-111077648D01*
X141391892Y-111023302D01*
X141368477Y-110875465D01*
X141305218Y-110680776D01*
X141262666Y-110597265D01*
X141212287Y-110498390D01*
X141202851Y-110485403D01*
X141091971Y-110332786D01*
X140947213Y-110188028D01*
X140781614Y-110067715D01*
X140775006Y-110064348D01*
X140688917Y-110020483D01*
X140638123Y-109972511D01*
X140621328Y-109904690D01*
X140643865Y-109838555D01*
X140688917Y-109799516D01*
X140781610Y-109752287D01*
X140802770Y-109736913D01*
X140947213Y-109631971D01*
X140947215Y-109631968D01*
X140947219Y-109631966D01*
X141091966Y-109487219D01*
X141091968Y-109487215D01*
X141091971Y-109487213D01*
X141170884Y-109378597D01*
X141212287Y-109321610D01*
X141305220Y-109139219D01*
X141368477Y-108944534D01*
X141400500Y-108742352D01*
X141400500Y-108537648D01*
X141368477Y-108335466D01*
X141305220Y-108140781D01*
X141305218Y-108140778D01*
X141305218Y-108140776D01*
X141271503Y-108074607D01*
X141212287Y-107958390D01*
X141204556Y-107947749D01*
X141091971Y-107792786D01*
X140947213Y-107648028D01*
X140781614Y-107527715D01*
X140772953Y-107523302D01*
X140688917Y-107480483D01*
X140638123Y-107432511D01*
X140621328Y-107364690D01*
X140643865Y-107298555D01*
X140688917Y-107259516D01*
X140781610Y-107212287D01*
X140895124Y-107129815D01*
X140947213Y-107091971D01*
X140947215Y-107091968D01*
X140947219Y-107091966D01*
X141091966Y-106947219D01*
X141091968Y-106947215D01*
X141091971Y-106947213D01*
X141144732Y-106874590D01*
X141212287Y-106781610D01*
X141305220Y-106599219D01*
X141368477Y-106404534D01*
X141400500Y-106202352D01*
X141400500Y-105997648D01*
X141381324Y-105876578D01*
X141368477Y-105795465D01*
X141331576Y-105681896D01*
X141305220Y-105600781D01*
X141305218Y-105600778D01*
X141305218Y-105600776D01*
X141271503Y-105534607D01*
X141212287Y-105418390D01*
X141204556Y-105407749D01*
X141091971Y-105252786D01*
X140947213Y-105108028D01*
X140781613Y-104987715D01*
X140781612Y-104987714D01*
X140781610Y-104987713D01*
X140724653Y-104958691D01*
X140599223Y-104894781D01*
X140404534Y-104831522D01*
X140229995Y-104803878D01*
X140202352Y-104799500D01*
X139597648Y-104799500D01*
X139573329Y-104803351D01*
X139395465Y-104831522D01*
X139200776Y-104894781D01*
X139018386Y-104987715D01*
X138852786Y-105108028D01*
X138708028Y-105252786D01*
X138587715Y-105418386D01*
X138494781Y-105600776D01*
X138431522Y-105795465D01*
X138399500Y-105997648D01*
X131791248Y-105997648D01*
X131536819Y-105743219D01*
X131503334Y-105681896D01*
X131500500Y-105655538D01*
X131500500Y-103249998D01*
X132944532Y-103249998D01*
X132944532Y-103250001D01*
X132964364Y-103476686D01*
X132964366Y-103476697D01*
X133023258Y-103696488D01*
X133023261Y-103696497D01*
X133119431Y-103902732D01*
X133119432Y-103902734D01*
X133249954Y-104089141D01*
X133410858Y-104250045D01*
X133410861Y-104250047D01*
X133597266Y-104380568D01*
X133803504Y-104476739D01*
X134023308Y-104535635D01*
X134185230Y-104549801D01*
X134249998Y-104555468D01*
X134250000Y-104555468D01*
X134250002Y-104555468D01*
X134306673Y-104550509D01*
X134476692Y-104535635D01*
X134696496Y-104476739D01*
X134902734Y-104380568D01*
X135089139Y-104250047D01*
X135250047Y-104089139D01*
X135380568Y-103902734D01*
X135476739Y-103696496D01*
X135535635Y-103476692D01*
X135555468Y-103250000D01*
X135555468Y-103249998D01*
X143944532Y-103249998D01*
X143944532Y-103250001D01*
X143964364Y-103476686D01*
X143964366Y-103476697D01*
X144023258Y-103696488D01*
X144023261Y-103696497D01*
X144119431Y-103902732D01*
X144119432Y-103902734D01*
X144249954Y-104089141D01*
X144410858Y-104250045D01*
X144410861Y-104250047D01*
X144597266Y-104380568D01*
X144803504Y-104476739D01*
X145023308Y-104535635D01*
X145185230Y-104549801D01*
X145249998Y-104555468D01*
X145250000Y-104555468D01*
X145250002Y-104555468D01*
X145306673Y-104550509D01*
X145476692Y-104535635D01*
X145696496Y-104476739D01*
X145902734Y-104380568D01*
X146089139Y-104250047D01*
X146250047Y-104089139D01*
X146380118Y-103903375D01*
X146434693Y-103859752D01*
X146481692Y-103850500D01*
X149663331Y-103850500D01*
X149663347Y-103850501D01*
X149670943Y-103850501D01*
X149829054Y-103850501D01*
X149829057Y-103850501D01*
X149981785Y-103809577D01*
X150031904Y-103780639D01*
X150118716Y-103730520D01*
X150230520Y-103618716D01*
X150230520Y-103618714D01*
X150240728Y-103608507D01*
X150240730Y-103608504D01*
X151557294Y-102291939D01*
X151618615Y-102258456D01*
X151677066Y-102259847D01*
X151696604Y-102265082D01*
X151773308Y-102285635D01*
X151935230Y-102299801D01*
X151999998Y-102305468D01*
X152000000Y-102305468D01*
X152000002Y-102305468D01*
X152056673Y-102300509D01*
X152226692Y-102285635D01*
X152446496Y-102226739D01*
X152652734Y-102130568D01*
X152839139Y-102000047D01*
X153000047Y-101839139D01*
X153130568Y-101652734D01*
X153226739Y-101446496D01*
X153285635Y-101226692D01*
X153305468Y-101000000D01*
X153285635Y-100773308D01*
X153226739Y-100553504D01*
X153130568Y-100347266D01*
X153032839Y-100207693D01*
X153000045Y-100160858D01*
X152839141Y-99999954D01*
X152652734Y-99869432D01*
X152652732Y-99869431D01*
X152446497Y-99773261D01*
X152446488Y-99773258D01*
X152226697Y-99714366D01*
X152226693Y-99714365D01*
X152226692Y-99714365D01*
X152226691Y-99714364D01*
X152226686Y-99714364D01*
X152000002Y-99694532D01*
X151999998Y-99694532D01*
X151773313Y-99714364D01*
X151773302Y-99714366D01*
X151553511Y-99773258D01*
X151553502Y-99773261D01*
X151347267Y-99869431D01*
X151347265Y-99869432D01*
X151160858Y-99999954D01*
X150999954Y-100160858D01*
X150869432Y-100347265D01*
X150869431Y-100347267D01*
X150773261Y-100553502D01*
X150773258Y-100553511D01*
X150714366Y-100773302D01*
X150714364Y-100773313D01*
X150694532Y-100999998D01*
X150694532Y-101000001D01*
X150714364Y-101226686D01*
X150714366Y-101226697D01*
X150740152Y-101322931D01*
X150738489Y-101392781D01*
X150708058Y-101442705D01*
X149537584Y-102613181D01*
X149476261Y-102646666D01*
X149449903Y-102649500D01*
X146481692Y-102649500D01*
X146414653Y-102629815D01*
X146380119Y-102596625D01*
X146250047Y-102410861D01*
X146250045Y-102410858D01*
X146089141Y-102249954D01*
X145902734Y-102119432D01*
X145902732Y-102119431D01*
X145696497Y-102023261D01*
X145696488Y-102023258D01*
X145476697Y-101964366D01*
X145476693Y-101964365D01*
X145476692Y-101964365D01*
X145476691Y-101964364D01*
X145476686Y-101964364D01*
X145250002Y-101944532D01*
X145249998Y-101944532D01*
X145023313Y-101964364D01*
X145023302Y-101964366D01*
X144803511Y-102023258D01*
X144803502Y-102023261D01*
X144597267Y-102119431D01*
X144597265Y-102119432D01*
X144410858Y-102249954D01*
X144249954Y-102410858D01*
X144119432Y-102597265D01*
X144119431Y-102597267D01*
X144023261Y-102803502D01*
X144023258Y-102803511D01*
X143964366Y-103023302D01*
X143964364Y-103023313D01*
X143944532Y-103249998D01*
X135555468Y-103249998D01*
X135535635Y-103023308D01*
X135509847Y-102927066D01*
X135511510Y-102857217D01*
X135541939Y-102807294D01*
X142462416Y-95886819D01*
X142523739Y-95853334D01*
X142550097Y-95850500D01*
X161913331Y-95850500D01*
X161913347Y-95850501D01*
X161920943Y-95850501D01*
X162079054Y-95850501D01*
X162079057Y-95850501D01*
X162231785Y-95809577D01*
X162299468Y-95770500D01*
X162368716Y-95730520D01*
X162480520Y-95618716D01*
X162480520Y-95618714D01*
X162490724Y-95608511D01*
X162490728Y-95608506D01*
X164557294Y-93541939D01*
X164618615Y-93508456D01*
X164677066Y-93509847D01*
X164696604Y-93515082D01*
X164773308Y-93535635D01*
X164935230Y-93549801D01*
X164999998Y-93555468D01*
X165000000Y-93555468D01*
X165000002Y-93555468D01*
X165056673Y-93550509D01*
X165226692Y-93535635D01*
X165446496Y-93476739D01*
X165652734Y-93380568D01*
X165839139Y-93250047D01*
X166000047Y-93089139D01*
X166130568Y-92902734D01*
X166226739Y-92696496D01*
X166285635Y-92476692D01*
X166305468Y-92250000D01*
X166285635Y-92023308D01*
X166226739Y-91803504D01*
X166130568Y-91597266D01*
X166000047Y-91410861D01*
X166000045Y-91410858D01*
X165839141Y-91249954D01*
X165652734Y-91119432D01*
X165652732Y-91119431D01*
X165446497Y-91023261D01*
X165446488Y-91023258D01*
X165226697Y-90964366D01*
X165226693Y-90964365D01*
X165226692Y-90964365D01*
X165226691Y-90964364D01*
X165226686Y-90964364D01*
X165000002Y-90944532D01*
X164999998Y-90944532D01*
X164773313Y-90964364D01*
X164773302Y-90964366D01*
X164553511Y-91023258D01*
X164553502Y-91023261D01*
X164347267Y-91119431D01*
X164347265Y-91119432D01*
X164160858Y-91249954D01*
X163999954Y-91410858D01*
X163869432Y-91597265D01*
X163869431Y-91597267D01*
X163773261Y-91803502D01*
X163773258Y-91803511D01*
X163714366Y-92023302D01*
X163714364Y-92023313D01*
X163694532Y-92249998D01*
X163694532Y-92250001D01*
X163714364Y-92476686D01*
X163714366Y-92476697D01*
X163740152Y-92572931D01*
X163738489Y-92642781D01*
X163708058Y-92692705D01*
X161787584Y-94613181D01*
X161726261Y-94646666D01*
X161699903Y-94649500D01*
X150489049Y-94649500D01*
X150422010Y-94629815D01*
X150376255Y-94577011D01*
X150366311Y-94507853D01*
X150395336Y-94444297D01*
X150401368Y-94437819D01*
X150500045Y-94339141D01*
X150500047Y-94339139D01*
X150630568Y-94152734D01*
X150726739Y-93946496D01*
X150785635Y-93726692D01*
X150802634Y-93532384D01*
X150805468Y-93500001D01*
X150805468Y-93499998D01*
X150785635Y-93273313D01*
X150785635Y-93273308D01*
X150726739Y-93053504D01*
X150630568Y-92847266D01*
X150500047Y-92660861D01*
X150500045Y-92660858D01*
X150339140Y-92499953D01*
X150153377Y-92369881D01*
X150109752Y-92315304D01*
X150100500Y-92268306D01*
X150100500Y-85249998D01*
X150694532Y-85249998D01*
X150694532Y-85250001D01*
X150714364Y-85476686D01*
X150714366Y-85476697D01*
X150773258Y-85696488D01*
X150773261Y-85696497D01*
X150869431Y-85902732D01*
X150869432Y-85902734D01*
X150999954Y-86089141D01*
X151160858Y-86250045D01*
X151160861Y-86250047D01*
X151346624Y-86380118D01*
X151390248Y-86434693D01*
X151399500Y-86481692D01*
X151399500Y-90268306D01*
X151379815Y-90335345D01*
X151346623Y-90369881D01*
X151160859Y-90499953D01*
X150999954Y-90660858D01*
X150869432Y-90847265D01*
X150869431Y-90847267D01*
X150773261Y-91053502D01*
X150773258Y-91053511D01*
X150714366Y-91273302D01*
X150714364Y-91273313D01*
X150694532Y-91499998D01*
X150694532Y-91500001D01*
X150714364Y-91726686D01*
X150714366Y-91726697D01*
X150773258Y-91946488D01*
X150773261Y-91946497D01*
X150869431Y-92152732D01*
X150869432Y-92152734D01*
X150999954Y-92339141D01*
X151160858Y-92500045D01*
X151160861Y-92500047D01*
X151347266Y-92630568D01*
X151553504Y-92726739D01*
X151553509Y-92726740D01*
X151553511Y-92726741D01*
X151559729Y-92728407D01*
X151773308Y-92785635D01*
X151935230Y-92799801D01*
X151999998Y-92805468D01*
X152000000Y-92805468D01*
X152000002Y-92805468D01*
X152056673Y-92800509D01*
X152226692Y-92785635D01*
X152446496Y-92726739D01*
X152652734Y-92630568D01*
X152839139Y-92500047D01*
X153000047Y-92339139D01*
X153130568Y-92152734D01*
X153226739Y-91946496D01*
X153285635Y-91726692D01*
X153305468Y-91500000D01*
X153285635Y-91273308D01*
X153226739Y-91053504D01*
X153130568Y-90847266D01*
X153000047Y-90660861D01*
X153000045Y-90660858D01*
X152839140Y-90499953D01*
X152653377Y-90369881D01*
X152609752Y-90315304D01*
X152600500Y-90268306D01*
X152600500Y-86481692D01*
X152620185Y-86414653D01*
X152653374Y-86380119D01*
X152839139Y-86250047D01*
X153000047Y-86089139D01*
X153130568Y-85902734D01*
X153226739Y-85696496D01*
X153285635Y-85476692D01*
X153305468Y-85250000D01*
X153285635Y-85023308D01*
X153232551Y-84825193D01*
X153226741Y-84803511D01*
X153226738Y-84803502D01*
X153130568Y-84597266D01*
X153000047Y-84410861D01*
X153000045Y-84410858D01*
X152839141Y-84249954D01*
X152652734Y-84119432D01*
X152652732Y-84119431D01*
X152446497Y-84023261D01*
X152446488Y-84023258D01*
X152226697Y-83964366D01*
X152226693Y-83964365D01*
X152226692Y-83964365D01*
X152226691Y-83964364D01*
X152226686Y-83964364D01*
X152000002Y-83944532D01*
X151999998Y-83944532D01*
X151773313Y-83964364D01*
X151773302Y-83964366D01*
X151553511Y-84023258D01*
X151553502Y-84023261D01*
X151347267Y-84119431D01*
X151347265Y-84119432D01*
X151160858Y-84249954D01*
X150999954Y-84410858D01*
X150869432Y-84597265D01*
X150869431Y-84597267D01*
X150773261Y-84803502D01*
X150773258Y-84803511D01*
X150714366Y-85023302D01*
X150714364Y-85023313D01*
X150694532Y-85249998D01*
X150100500Y-85249998D01*
X150100500Y-82550096D01*
X150120185Y-82483057D01*
X150136814Y-82462420D01*
X155057294Y-77541939D01*
X155118615Y-77508456D01*
X155177066Y-77509847D01*
X155196604Y-77515082D01*
X155273308Y-77535635D01*
X155435230Y-77549801D01*
X155499998Y-77555468D01*
X155500000Y-77555468D01*
X155500002Y-77555468D01*
X155556673Y-77550509D01*
X155726692Y-77535635D01*
X155946496Y-77476739D01*
X156152734Y-77380568D01*
X156339139Y-77250047D01*
X156500047Y-77089139D01*
X156512611Y-77071194D01*
X156567186Y-77027568D01*
X156636685Y-77020373D01*
X156699040Y-77051893D01*
X156714506Y-77069430D01*
X156813142Y-77205193D01*
X156967802Y-77359853D01*
X156967807Y-77359857D01*
X157119394Y-77469991D01*
X157162060Y-77525320D01*
X157168039Y-77594934D01*
X157135434Y-77656729D01*
X157119394Y-77670627D01*
X156968133Y-77780524D01*
X156968128Y-77780528D01*
X156813528Y-77935128D01*
X156813524Y-77935133D01*
X156685023Y-78112001D01*
X156585762Y-78306808D01*
X156585761Y-78306811D01*
X156518201Y-78514741D01*
X156506282Y-78590000D01*
X157557749Y-78590000D01*
X157526619Y-78643919D01*
X157492000Y-78773120D01*
X157492000Y-78906880D01*
X157526619Y-79036081D01*
X157557749Y-79090000D01*
X156506282Y-79090000D01*
X156518201Y-79165258D01*
X156585761Y-79373188D01*
X156585762Y-79373191D01*
X156685023Y-79567998D01*
X156813524Y-79744866D01*
X156813528Y-79744871D01*
X156968128Y-79899471D01*
X156968133Y-79899475D01*
X157119394Y-80009372D01*
X157162060Y-80064701D01*
X157168039Y-80134315D01*
X157135434Y-80196110D01*
X157119394Y-80210008D01*
X156967807Y-80320142D01*
X156967802Y-80320146D01*
X156813142Y-80474806D01*
X156684595Y-80651739D01*
X156585298Y-80846616D01*
X156585297Y-80846619D01*
X156517714Y-81054623D01*
X156483500Y-81270638D01*
X156483500Y-81489361D01*
X156517714Y-81705376D01*
X156585297Y-81913380D01*
X156585298Y-81913381D01*
X156684595Y-82108260D01*
X156813142Y-82285193D01*
X156967806Y-82439857D01*
X157118969Y-82549682D01*
X157161635Y-82605011D01*
X157167614Y-82674625D01*
X157135009Y-82736420D01*
X157118969Y-82750318D01*
X156967806Y-82860142D01*
X156813142Y-83014806D01*
X156684595Y-83191739D01*
X156585298Y-83386616D01*
X156585297Y-83386619D01*
X156517714Y-83594623D01*
X156483500Y-83810638D01*
X156483500Y-84029361D01*
X156517714Y-84245376D01*
X156585297Y-84453380D01*
X156585298Y-84453383D01*
X156648043Y-84576524D01*
X156670289Y-84620185D01*
X156684595Y-84648260D01*
X156813142Y-84825193D01*
X156967806Y-84979857D01*
X157118969Y-85089682D01*
X157161635Y-85145011D01*
X157167614Y-85214625D01*
X157135009Y-85276420D01*
X157118969Y-85290318D01*
X156967806Y-85400142D01*
X156813142Y-85554806D01*
X156684595Y-85731739D01*
X156585298Y-85926616D01*
X156585297Y-85926619D01*
X156517714Y-86134623D01*
X156483500Y-86350638D01*
X156483500Y-86569361D01*
X156517714Y-86785376D01*
X156585297Y-86993380D01*
X156585298Y-86993383D01*
X156684595Y-87188260D01*
X156813142Y-87365193D01*
X156967806Y-87519857D01*
X157118969Y-87629682D01*
X157161635Y-87685011D01*
X157167614Y-87754625D01*
X157135009Y-87816420D01*
X157118969Y-87830318D01*
X156967806Y-87940142D01*
X156813142Y-88094806D01*
X156684595Y-88271739D01*
X156585298Y-88466616D01*
X156585297Y-88466619D01*
X156517714Y-88674623D01*
X156483500Y-88890638D01*
X156483500Y-89109361D01*
X156517714Y-89325376D01*
X156585297Y-89533380D01*
X156585298Y-89533383D01*
X156684595Y-89728260D01*
X156813142Y-89905193D01*
X156967806Y-90059857D01*
X157118969Y-90169682D01*
X157161635Y-90225011D01*
X157167614Y-90294625D01*
X157135009Y-90356420D01*
X157118969Y-90370318D01*
X156967806Y-90480142D01*
X156813142Y-90634806D01*
X156684595Y-90811739D01*
X156585298Y-91006616D01*
X156585297Y-91006619D01*
X156517714Y-91214623D01*
X156483500Y-91430638D01*
X156483500Y-91649361D01*
X156517714Y-91865376D01*
X156585297Y-92073380D01*
X156585298Y-92073383D01*
X156684595Y-92268260D01*
X156813142Y-92445193D01*
X156967806Y-92599857D01*
X157095603Y-92692705D01*
X157144743Y-92728407D01*
X157272132Y-92793315D01*
X157339616Y-92827701D01*
X157339619Y-92827702D01*
X157443621Y-92861493D01*
X157547625Y-92895286D01*
X157647672Y-92911132D01*
X157763639Y-92929500D01*
X157763644Y-92929500D01*
X159760361Y-92929500D01*
X159865082Y-92912912D01*
X159976375Y-92895286D01*
X160184383Y-92827701D01*
X160379257Y-92728407D01*
X160513922Y-92630568D01*
X160556193Y-92599857D01*
X160556195Y-92599854D01*
X160556199Y-92599852D01*
X160710852Y-92445199D01*
X160710854Y-92445195D01*
X160710857Y-92445193D01*
X160767229Y-92367601D01*
X160839407Y-92268257D01*
X160938701Y-92073383D01*
X161006286Y-91865375D01*
X161023912Y-91754082D01*
X161040500Y-91649361D01*
X161040500Y-91430638D01*
X161015580Y-91273308D01*
X161006286Y-91214625D01*
X160953938Y-91053511D01*
X160938702Y-91006619D01*
X160938701Y-91006616D01*
X160904315Y-90939132D01*
X160839407Y-90811743D01*
X160831147Y-90800374D01*
X160710857Y-90634806D01*
X160556199Y-90480148D01*
X160556191Y-90480142D01*
X160405028Y-90370316D01*
X160362364Y-90314989D01*
X160356385Y-90245376D01*
X160388990Y-90183580D01*
X160405023Y-90169686D01*
X160556199Y-90059852D01*
X160710852Y-89905199D01*
X160710854Y-89905195D01*
X160710857Y-89905193D01*
X160793340Y-89791663D01*
X160839407Y-89728257D01*
X160938701Y-89533383D01*
X161006286Y-89325375D01*
X161024177Y-89212416D01*
X161040500Y-89109361D01*
X161040500Y-88890638D01*
X161018678Y-88752867D01*
X161006286Y-88674625D01*
X160955877Y-88519480D01*
X160938702Y-88466619D01*
X160938701Y-88466616D01*
X160904315Y-88399132D01*
X160839407Y-88271743D01*
X160830792Y-88259886D01*
X160710857Y-88094806D01*
X160556199Y-87940148D01*
X160556191Y-87940142D01*
X160405028Y-87830316D01*
X160362364Y-87774989D01*
X160356385Y-87705376D01*
X160388990Y-87643580D01*
X160405023Y-87629686D01*
X160556199Y-87519852D01*
X160710852Y-87365199D01*
X160710854Y-87365195D01*
X160710857Y-87365193D01*
X160785638Y-87262264D01*
X160839407Y-87188257D01*
X160938701Y-86993383D01*
X161006286Y-86785375D01*
X161025174Y-86666120D01*
X161040500Y-86569361D01*
X161040500Y-86350638D01*
X161020595Y-86224971D01*
X161006286Y-86134625D01*
X160955877Y-85979480D01*
X160938702Y-85926619D01*
X160938701Y-85926616D01*
X160870005Y-85791795D01*
X160839407Y-85731743D01*
X160831147Y-85720374D01*
X160743679Y-85599983D01*
X163624500Y-85599983D01*
X163624500Y-86400001D01*
X163624501Y-86400019D01*
X163635000Y-86502796D01*
X163635001Y-86502799D01*
X163657058Y-86569361D01*
X163690186Y-86669334D01*
X163782288Y-86818656D01*
X163906344Y-86942712D01*
X164055666Y-87034814D01*
X164222203Y-87089999D01*
X164324991Y-87100500D01*
X165675008Y-87100499D01*
X165777797Y-87089999D01*
X165944334Y-87034814D01*
X166093656Y-86942712D01*
X166217712Y-86818656D01*
X166309814Y-86669334D01*
X166364999Y-86502797D01*
X166375500Y-86400009D01*
X166375499Y-85599992D01*
X166364999Y-85497203D01*
X166309814Y-85330666D01*
X166217712Y-85181344D01*
X166093656Y-85057288D01*
X166093655Y-85057287D01*
X166038565Y-85023308D01*
X166029018Y-85017419D01*
X165982294Y-84965472D01*
X165971071Y-84896510D01*
X165998914Y-84832428D01*
X166006434Y-84824199D01*
X166114035Y-84716598D01*
X166215804Y-84576524D01*
X166294408Y-84422255D01*
X166347914Y-84257584D01*
X166349115Y-84250000D01*
X165280330Y-84250000D01*
X165300075Y-84230255D01*
X165349444Y-84144745D01*
X165375000Y-84049370D01*
X165375000Y-83950630D01*
X165349444Y-83855255D01*
X165300075Y-83769745D01*
X165280330Y-83750000D01*
X166349115Y-83750000D01*
X166349115Y-83749999D01*
X166347914Y-83742415D01*
X166294408Y-83577744D01*
X166215804Y-83423475D01*
X166114032Y-83283397D01*
X165991602Y-83160967D01*
X165851524Y-83059195D01*
X165697257Y-82980591D01*
X165532584Y-82927085D01*
X165361571Y-82900000D01*
X165250000Y-82900000D01*
X165250000Y-83719670D01*
X165230255Y-83699925D01*
X165144745Y-83650556D01*
X165049370Y-83625000D01*
X164950630Y-83625000D01*
X164855255Y-83650556D01*
X164769745Y-83699925D01*
X164750000Y-83719670D01*
X164750000Y-82900000D01*
X164638429Y-82900000D01*
X164467415Y-82927085D01*
X164302742Y-82980591D01*
X164148475Y-83059195D01*
X164008397Y-83160967D01*
X163885967Y-83283397D01*
X163784195Y-83423475D01*
X163705591Y-83577744D01*
X163652085Y-83742415D01*
X163650884Y-83749999D01*
X163650885Y-83750000D01*
X164719670Y-83750000D01*
X164699925Y-83769745D01*
X164650556Y-83855255D01*
X164625000Y-83950630D01*
X164625000Y-84049370D01*
X164650556Y-84144745D01*
X164699925Y-84230255D01*
X164719670Y-84250000D01*
X163650885Y-84250000D01*
X163652085Y-84257584D01*
X163705591Y-84422255D01*
X163784195Y-84576524D01*
X163885967Y-84716602D01*
X163993565Y-84824200D01*
X164027050Y-84885523D01*
X164022066Y-84955215D01*
X163980194Y-85011148D01*
X163970983Y-85017418D01*
X163961435Y-85023308D01*
X163906342Y-85057289D01*
X163782289Y-85181342D01*
X163690187Y-85330663D01*
X163690185Y-85330668D01*
X163684330Y-85348337D01*
X163635001Y-85497203D01*
X163635001Y-85497204D01*
X163635000Y-85497204D01*
X163624500Y-85599983D01*
X160743679Y-85599983D01*
X160710857Y-85554806D01*
X160556199Y-85400148D01*
X160556191Y-85400142D01*
X160405028Y-85290316D01*
X160362364Y-85234989D01*
X160356385Y-85165376D01*
X160388990Y-85103580D01*
X160405023Y-85089686D01*
X160556199Y-84979852D01*
X160710852Y-84825199D01*
X160710854Y-84825195D01*
X160710857Y-84825193D01*
X160789752Y-84716602D01*
X160839407Y-84648257D01*
X160938701Y-84453383D01*
X161006286Y-84245375D01*
X161026234Y-84119431D01*
X161040500Y-84029361D01*
X161040500Y-83810638D01*
X161020595Y-83684971D01*
X161006286Y-83594625D01*
X160938701Y-83386617D01*
X160938701Y-83386616D01*
X160886107Y-83283397D01*
X160839407Y-83191743D01*
X160816968Y-83160858D01*
X160710857Y-83014806D01*
X160556199Y-82860148D01*
X160556191Y-82860142D01*
X160405028Y-82750316D01*
X160362364Y-82694989D01*
X160356385Y-82625376D01*
X160388990Y-82563580D01*
X160405023Y-82549686D01*
X160556199Y-82439852D01*
X160710852Y-82285199D01*
X160710854Y-82285195D01*
X160710857Y-82285193D01*
X160793863Y-82170943D01*
X160839407Y-82108257D01*
X160938701Y-81913383D01*
X161006286Y-81705375D01*
X161023912Y-81594082D01*
X161040500Y-81489361D01*
X161040500Y-81270638D01*
X161020595Y-81144971D01*
X161006286Y-81054625D01*
X160938701Y-80846617D01*
X160938701Y-80846616D01*
X160904315Y-80779132D01*
X160839407Y-80651743D01*
X160831147Y-80640374D01*
X160710857Y-80474806D01*
X160556197Y-80320146D01*
X160556192Y-80320142D01*
X160404605Y-80210008D01*
X160361939Y-80154678D01*
X160355960Y-80085065D01*
X160388565Y-80023270D01*
X160404605Y-80009371D01*
X160555873Y-79899469D01*
X160710471Y-79744871D01*
X160710475Y-79744866D01*
X160838976Y-79567998D01*
X160938237Y-79373191D01*
X160938238Y-79373188D01*
X161005798Y-79165258D01*
X161017718Y-79090000D01*
X158442251Y-79090000D01*
X158473381Y-79036081D01*
X158508000Y-78906880D01*
X158508000Y-78773120D01*
X158473381Y-78643919D01*
X158442251Y-78590000D01*
X161017718Y-78590000D01*
X161005798Y-78514741D01*
X160938238Y-78306811D01*
X160938237Y-78306808D01*
X160838976Y-78112001D01*
X160710475Y-77935133D01*
X160710471Y-77935128D01*
X160555871Y-77780528D01*
X160555866Y-77780524D01*
X160404605Y-77670627D01*
X160361939Y-77615297D01*
X160355960Y-77545684D01*
X160388565Y-77483889D01*
X160404599Y-77469994D01*
X160556199Y-77359852D01*
X160710852Y-77205199D01*
X160710854Y-77205195D01*
X160710857Y-77205193D01*
X160795174Y-77089139D01*
X160839407Y-77028257D01*
X160938701Y-76833383D01*
X161006286Y-76625375D01*
X161023912Y-76514082D01*
X161040500Y-76409361D01*
X161040500Y-76190638D01*
X161013997Y-76023313D01*
X161006286Y-75974625D01*
X160972493Y-75870621D01*
X160938702Y-75766619D01*
X160938701Y-75766616D01*
X160892700Y-75676335D01*
X160839407Y-75571743D01*
X160802177Y-75520500D01*
X160710857Y-75394806D01*
X160556193Y-75240142D01*
X160379260Y-75111595D01*
X160379259Y-75111594D01*
X160379257Y-75111593D01*
X160316825Y-75079782D01*
X160184383Y-75012298D01*
X160184380Y-75012297D01*
X159976376Y-74944714D01*
X159760361Y-74910500D01*
X159760356Y-74910500D01*
X157763644Y-74910500D01*
X157763639Y-74910500D01*
X157547623Y-74944714D01*
X157339619Y-75012297D01*
X157339616Y-75012298D01*
X157144739Y-75111595D01*
X156967806Y-75240142D01*
X156813146Y-75394802D01*
X156750162Y-75481493D01*
X156694832Y-75524158D01*
X156625219Y-75530137D01*
X156563424Y-75497531D01*
X156548274Y-75479737D01*
X156500047Y-75410861D01*
X156500044Y-75410858D01*
X156500042Y-75410855D01*
X156339141Y-75249954D01*
X156152734Y-75119432D01*
X156152732Y-75119431D01*
X155946497Y-75023261D01*
X155946488Y-75023258D01*
X155726697Y-74964366D01*
X155726693Y-74964365D01*
X155726692Y-74964365D01*
X155726691Y-74964364D01*
X155726686Y-74964364D01*
X155500002Y-74944532D01*
X155499998Y-74944532D01*
X155273313Y-74964364D01*
X155273302Y-74964366D01*
X155053511Y-75023258D01*
X155053502Y-75023261D01*
X154847267Y-75119431D01*
X154847265Y-75119432D01*
X154660858Y-75249954D01*
X154499954Y-75410858D01*
X154369432Y-75597265D01*
X154369431Y-75597267D01*
X154273261Y-75803502D01*
X154273258Y-75803511D01*
X154214366Y-76023302D01*
X154214364Y-76023313D01*
X154194532Y-76249998D01*
X154194532Y-76250001D01*
X154214364Y-76476686D01*
X154214366Y-76476697D01*
X154240152Y-76572931D01*
X154238489Y-76642781D01*
X154208058Y-76692705D01*
X149131286Y-81769478D01*
X149019481Y-81881282D01*
X149019477Y-81881287D01*
X149000950Y-81913380D01*
X149000948Y-81913383D01*
X148940423Y-82018215D01*
X148899499Y-82170943D01*
X148899499Y-82170945D01*
X148899499Y-82339046D01*
X148899500Y-82339059D01*
X148899500Y-92268306D01*
X148879815Y-92335345D01*
X148846623Y-92369881D01*
X148660859Y-92499953D01*
X148499954Y-92660858D01*
X148369432Y-92847265D01*
X148369431Y-92847267D01*
X148273263Y-93053500D01*
X148273258Y-93053511D01*
X148214366Y-93273302D01*
X148214364Y-93273313D01*
X148194532Y-93499998D01*
X148194532Y-93500001D01*
X148214364Y-93726686D01*
X148214366Y-93726697D01*
X148273258Y-93946488D01*
X148273261Y-93946497D01*
X148369431Y-94152732D01*
X148369432Y-94152734D01*
X148499954Y-94339141D01*
X148598632Y-94437819D01*
X148632117Y-94499142D01*
X148627133Y-94568834D01*
X148585261Y-94624767D01*
X148519797Y-94649184D01*
X148510951Y-94649500D01*
X142170940Y-94649500D01*
X142130019Y-94660464D01*
X142130019Y-94660465D01*
X142092751Y-94670451D01*
X142018214Y-94690423D01*
X142018209Y-94690426D01*
X141881290Y-94769475D01*
X141881282Y-94769481D01*
X141769478Y-94881286D01*
X134692705Y-101958058D01*
X134631382Y-101991543D01*
X134572931Y-101990152D01*
X134476697Y-101964366D01*
X134476693Y-101964365D01*
X134476692Y-101964365D01*
X134476691Y-101964364D01*
X134476686Y-101964364D01*
X134250002Y-101944532D01*
X134249998Y-101944532D01*
X134023313Y-101964364D01*
X134023302Y-101964366D01*
X133803511Y-102023258D01*
X133803502Y-102023261D01*
X133597267Y-102119431D01*
X133597265Y-102119432D01*
X133410858Y-102249954D01*
X133249954Y-102410858D01*
X133119432Y-102597265D01*
X133119431Y-102597267D01*
X133023261Y-102803502D01*
X133023258Y-102803511D01*
X132964366Y-103023302D01*
X132964364Y-103023313D01*
X132944532Y-103249998D01*
X131500500Y-103249998D01*
X131500500Y-102150097D01*
X131520185Y-102083058D01*
X131536819Y-102062416D01*
X133979735Y-99619500D01*
X136730520Y-96868716D01*
X136809577Y-96731784D01*
X136850501Y-96579057D01*
X136850501Y-96420942D01*
X136850501Y-96413347D01*
X136850500Y-96413329D01*
X136850500Y-89300097D01*
X136870185Y-89233058D01*
X136886819Y-89212416D01*
X139002416Y-87096819D01*
X139063739Y-87063334D01*
X139090097Y-87060500D01*
X139779510Y-87060500D01*
X139846549Y-87080185D01*
X139889995Y-87128205D01*
X139920595Y-87188260D01*
X140049142Y-87365193D01*
X140203806Y-87519857D01*
X140354969Y-87629682D01*
X140397635Y-87685011D01*
X140403614Y-87754625D01*
X140371009Y-87816420D01*
X140354969Y-87830318D01*
X140203806Y-87940142D01*
X140049142Y-88094806D01*
X139920595Y-88271739D01*
X139821298Y-88466616D01*
X139821297Y-88466619D01*
X139753714Y-88674623D01*
X139719500Y-88890638D01*
X139719500Y-89109361D01*
X139753714Y-89325376D01*
X139821297Y-89533380D01*
X139821298Y-89533383D01*
X139920595Y-89728260D01*
X140049142Y-89905193D01*
X140203806Y-90059857D01*
X140354969Y-90169682D01*
X140397635Y-90225011D01*
X140403614Y-90294625D01*
X140371009Y-90356420D01*
X140354969Y-90370318D01*
X140203806Y-90480142D01*
X140049142Y-90634806D01*
X139920595Y-90811739D01*
X139821298Y-91006616D01*
X139821297Y-91006619D01*
X139753714Y-91214623D01*
X139719500Y-91430638D01*
X139719500Y-91649361D01*
X139753714Y-91865376D01*
X139821297Y-92073380D01*
X139821298Y-92073383D01*
X139920595Y-92268260D01*
X140049142Y-92445193D01*
X140203806Y-92599857D01*
X140331603Y-92692705D01*
X140380743Y-92728407D01*
X140508132Y-92793315D01*
X140575616Y-92827701D01*
X140575619Y-92827702D01*
X140679621Y-92861493D01*
X140783625Y-92895286D01*
X140883672Y-92911132D01*
X140999639Y-92929500D01*
X140999644Y-92929500D01*
X142996361Y-92929500D01*
X143101082Y-92912912D01*
X143212375Y-92895286D01*
X143420383Y-92827701D01*
X143615257Y-92728407D01*
X143749922Y-92630568D01*
X143792193Y-92599857D01*
X143792195Y-92599854D01*
X143792199Y-92599852D01*
X143946852Y-92445199D01*
X143946854Y-92445195D01*
X143946857Y-92445193D01*
X144003229Y-92367601D01*
X144075407Y-92268257D01*
X144174701Y-92073383D01*
X144242286Y-91865375D01*
X144259912Y-91754082D01*
X144276500Y-91649361D01*
X144276500Y-91430638D01*
X144251580Y-91273308D01*
X144242286Y-91214625D01*
X144189938Y-91053511D01*
X144174702Y-91006619D01*
X144174701Y-91006616D01*
X144140315Y-90939132D01*
X144075407Y-90811743D01*
X144067147Y-90800374D01*
X143946857Y-90634806D01*
X143792199Y-90480148D01*
X143792191Y-90480142D01*
X143641028Y-90370316D01*
X143598364Y-90314989D01*
X143592385Y-90245376D01*
X143624990Y-90183580D01*
X143641023Y-90169686D01*
X143792199Y-90059852D01*
X143946852Y-89905199D01*
X143946854Y-89905195D01*
X143946857Y-89905193D01*
X144029340Y-89791663D01*
X144075407Y-89728257D01*
X144174701Y-89533383D01*
X144242286Y-89325375D01*
X144260177Y-89212416D01*
X144276500Y-89109361D01*
X144276500Y-88890638D01*
X144254678Y-88752867D01*
X144242286Y-88674625D01*
X144191877Y-88519480D01*
X144174702Y-88466619D01*
X144174701Y-88466616D01*
X144140315Y-88399132D01*
X144075407Y-88271743D01*
X144066792Y-88259886D01*
X143946857Y-88094806D01*
X143792199Y-87940148D01*
X143792191Y-87940142D01*
X143641028Y-87830316D01*
X143598364Y-87774989D01*
X143592385Y-87705376D01*
X143624990Y-87643580D01*
X143641023Y-87629686D01*
X143792199Y-87519852D01*
X143946852Y-87365199D01*
X143946854Y-87365195D01*
X143946857Y-87365193D01*
X144021638Y-87262264D01*
X144075407Y-87188257D01*
X144174701Y-86993383D01*
X144242286Y-86785375D01*
X144261174Y-86666120D01*
X144276500Y-86569361D01*
X144276500Y-86350638D01*
X144256595Y-86224971D01*
X144242286Y-86134625D01*
X144191877Y-85979480D01*
X144174702Y-85926619D01*
X144174701Y-85926616D01*
X144106005Y-85791795D01*
X144075407Y-85731743D01*
X144067147Y-85720374D01*
X143946857Y-85554806D01*
X143792199Y-85400148D01*
X143792191Y-85400142D01*
X143641028Y-85290316D01*
X143598364Y-85234989D01*
X143592385Y-85165376D01*
X143624990Y-85103580D01*
X143641023Y-85089686D01*
X143792199Y-84979852D01*
X143946852Y-84825199D01*
X143946854Y-84825195D01*
X143946857Y-84825193D01*
X144025752Y-84716602D01*
X144075407Y-84648257D01*
X144174701Y-84453383D01*
X144242286Y-84245375D01*
X144262234Y-84119431D01*
X144276500Y-84029361D01*
X144276500Y-83810638D01*
X144256595Y-83684971D01*
X144242286Y-83594625D01*
X144174701Y-83386617D01*
X144174701Y-83386616D01*
X144122107Y-83283397D01*
X144075407Y-83191743D01*
X144052968Y-83160858D01*
X143946857Y-83014806D01*
X143792199Y-82860148D01*
X143792191Y-82860142D01*
X143641028Y-82750316D01*
X143598364Y-82694989D01*
X143592385Y-82625376D01*
X143624990Y-82563580D01*
X143641023Y-82549686D01*
X143792199Y-82439852D01*
X143946852Y-82285199D01*
X143946854Y-82285195D01*
X143946857Y-82285193D01*
X144029863Y-82170943D01*
X144075407Y-82108257D01*
X144174701Y-81913383D01*
X144242286Y-81705375D01*
X144259912Y-81594082D01*
X144276500Y-81489361D01*
X144276500Y-81270638D01*
X144256595Y-81144971D01*
X144242286Y-81054625D01*
X144174701Y-80846617D01*
X144174701Y-80846616D01*
X144140315Y-80779132D01*
X144075407Y-80651743D01*
X144067147Y-80640374D01*
X143946857Y-80474806D01*
X143792199Y-80320148D01*
X143792191Y-80320142D01*
X143641028Y-80210316D01*
X143598364Y-80154989D01*
X143592385Y-80085376D01*
X143624990Y-80023580D01*
X143641023Y-80009686D01*
X143792199Y-79899852D01*
X143946852Y-79745199D01*
X143946854Y-79745195D01*
X143946857Y-79745193D01*
X144003229Y-79667601D01*
X144075407Y-79568257D01*
X144174701Y-79373383D01*
X144242286Y-79165375D01*
X144262764Y-79036081D01*
X144276500Y-78949361D01*
X144276500Y-78730638D01*
X144254224Y-78590000D01*
X144242286Y-78514625D01*
X144194197Y-78366619D01*
X144174702Y-78306619D01*
X144174701Y-78306616D01*
X144140315Y-78239132D01*
X144075407Y-78111743D01*
X144067147Y-78100374D01*
X143946857Y-77934806D01*
X143792199Y-77780148D01*
X143792191Y-77780142D01*
X143641028Y-77670316D01*
X143598364Y-77614989D01*
X143592385Y-77545376D01*
X143624990Y-77483580D01*
X143641023Y-77469686D01*
X143792199Y-77359852D01*
X143946852Y-77205199D01*
X143946854Y-77205195D01*
X143946857Y-77205193D01*
X144031174Y-77089139D01*
X144075407Y-77028257D01*
X144174701Y-76833383D01*
X144242286Y-76625375D01*
X144259912Y-76514082D01*
X144276500Y-76409361D01*
X144276500Y-76190638D01*
X144249997Y-76023313D01*
X144242286Y-75974625D01*
X144208493Y-75870621D01*
X144174702Y-75766619D01*
X144174701Y-75766616D01*
X144128700Y-75676335D01*
X144075407Y-75571743D01*
X144038177Y-75520500D01*
X143946857Y-75394806D01*
X143792193Y-75240142D01*
X143615260Y-75111595D01*
X143615259Y-75111594D01*
X143615257Y-75111593D01*
X143552825Y-75079782D01*
X143420383Y-75012298D01*
X143420380Y-75012297D01*
X143212376Y-74944714D01*
X142996361Y-74910500D01*
X142996356Y-74910500D01*
X140999644Y-74910500D01*
X140999639Y-74910500D01*
X140783623Y-74944714D01*
X140575619Y-75012297D01*
X140575616Y-75012298D01*
X140380739Y-75111595D01*
X140203806Y-75240142D01*
X140049142Y-75394806D01*
X139920595Y-75571739D01*
X139821298Y-75766616D01*
X139821297Y-75766619D01*
X139753714Y-75974623D01*
X139719500Y-76190638D01*
X139719500Y-76409361D01*
X139753714Y-76625376D01*
X139821297Y-76833380D01*
X139821298Y-76833383D01*
X139888782Y-76965825D01*
X139912004Y-77011401D01*
X139920595Y-77028260D01*
X140049142Y-77205193D01*
X140203806Y-77359857D01*
X140354969Y-77469682D01*
X140397635Y-77525011D01*
X140403614Y-77594625D01*
X140371009Y-77656420D01*
X140354969Y-77670318D01*
X140203806Y-77780142D01*
X140049142Y-77934806D01*
X139920595Y-78111739D01*
X139821298Y-78306616D01*
X139821297Y-78306619D01*
X139753714Y-78514623D01*
X139719500Y-78730638D01*
X139719500Y-78949361D01*
X139753714Y-79165376D01*
X139821297Y-79373380D01*
X139821298Y-79373383D01*
X139888782Y-79505825D01*
X139920461Y-79567998D01*
X139920595Y-79568260D01*
X140049142Y-79745193D01*
X140203806Y-79899857D01*
X140354969Y-80009682D01*
X140397635Y-80065011D01*
X140403614Y-80134625D01*
X140371009Y-80196420D01*
X140354969Y-80210318D01*
X140203806Y-80320142D01*
X140049142Y-80474806D01*
X139920595Y-80651739D01*
X139821298Y-80846616D01*
X139821297Y-80846619D01*
X139753714Y-81054623D01*
X139719500Y-81270638D01*
X139719500Y-81489361D01*
X139753714Y-81705376D01*
X139821297Y-81913380D01*
X139821298Y-81913381D01*
X139920595Y-82108260D01*
X140049142Y-82285193D01*
X140203806Y-82439857D01*
X140354969Y-82549682D01*
X140397635Y-82605011D01*
X140403614Y-82674625D01*
X140371009Y-82736420D01*
X140354969Y-82750318D01*
X140203806Y-82860142D01*
X140049142Y-83014806D01*
X139920595Y-83191739D01*
X139821298Y-83386616D01*
X139821297Y-83386619D01*
X139753714Y-83594623D01*
X139719500Y-83810638D01*
X139719500Y-84029361D01*
X139753714Y-84245376D01*
X139821297Y-84453380D01*
X139821298Y-84453383D01*
X139884043Y-84576524D01*
X139906289Y-84620185D01*
X139920595Y-84648260D01*
X140049142Y-84825193D01*
X140203806Y-84979857D01*
X140354969Y-85089682D01*
X140397635Y-85145011D01*
X140403614Y-85214625D01*
X140371009Y-85276420D01*
X140354969Y-85290318D01*
X140203806Y-85400142D01*
X140049142Y-85554806D01*
X139920595Y-85731739D01*
X139889995Y-85791795D01*
X139842020Y-85842591D01*
X139779510Y-85859500D01*
X138710940Y-85859500D01*
X138670019Y-85870464D01*
X138670019Y-85870465D01*
X138632751Y-85880451D01*
X138558214Y-85900423D01*
X138558209Y-85900426D01*
X138421290Y-85979475D01*
X138421282Y-85979481D01*
X135769481Y-88631282D01*
X135769475Y-88631290D01*
X135726441Y-88705829D01*
X135726441Y-88705831D01*
X135690423Y-88768214D01*
X135676781Y-88819124D01*
X135649499Y-88920943D01*
X135649499Y-88920945D01*
X135649499Y-89089046D01*
X135649500Y-89089059D01*
X135649500Y-96199902D01*
X135629815Y-96266941D01*
X135613181Y-96287583D01*
X130419482Y-101481281D01*
X130419480Y-101481283D01*
X130408267Y-101500705D01*
X130400058Y-101514925D01*
X130340423Y-101618215D01*
X130299499Y-101770943D01*
X130299499Y-101770945D01*
X130299499Y-101939046D01*
X130299500Y-101939059D01*
X130299500Y-105868965D01*
X130299499Y-105868983D01*
X130299499Y-106034689D01*
X130299498Y-106034689D01*
X104000500Y-106034689D01*
X104000500Y-101069994D01*
X121734529Y-101069994D01*
X121734529Y-101070005D01*
X121754379Y-101309559D01*
X121813389Y-101542589D01*
X121909951Y-101762729D01*
X121915318Y-101770943D01*
X122041429Y-101963969D01*
X122204236Y-102140825D01*
X122204239Y-102140827D01*
X122204242Y-102140830D01*
X122393924Y-102288466D01*
X122393930Y-102288470D01*
X122393933Y-102288472D01*
X122605344Y-102402882D01*
X122605347Y-102402883D01*
X122832699Y-102480933D01*
X122832701Y-102480933D01*
X122832703Y-102480934D01*
X123069808Y-102520500D01*
X123069809Y-102520500D01*
X123310191Y-102520500D01*
X123310192Y-102520500D01*
X123547297Y-102480934D01*
X123774656Y-102402882D01*
X123986067Y-102288472D01*
X124022845Y-102259847D01*
X124163851Y-102150097D01*
X124175764Y-102140825D01*
X124338571Y-101963969D01*
X124470049Y-101762728D01*
X124566610Y-101542591D01*
X124625620Y-101309563D01*
X124645471Y-101070000D01*
X124639670Y-100999998D01*
X124625620Y-100830440D01*
X124625620Y-100830437D01*
X124566610Y-100597409D01*
X124470049Y-100377272D01*
X124455928Y-100355659D01*
X124338572Y-100176033D01*
X124338571Y-100176031D01*
X124175764Y-99999175D01*
X124175759Y-99999171D01*
X124175757Y-99999169D01*
X123986075Y-99851533D01*
X123986069Y-99851529D01*
X123774657Y-99737118D01*
X123774652Y-99737116D01*
X123547300Y-99659066D01*
X123369468Y-99629391D01*
X123310192Y-99619500D01*
X123069808Y-99619500D01*
X123022387Y-99627413D01*
X122832699Y-99659066D01*
X122605347Y-99737116D01*
X122605342Y-99737118D01*
X122393930Y-99851529D01*
X122393924Y-99851533D01*
X122204242Y-99999169D01*
X122204239Y-99999172D01*
X122041430Y-100176029D01*
X122041427Y-100176033D01*
X121909951Y-100377270D01*
X121813389Y-100597410D01*
X121754379Y-100830440D01*
X121734529Y-101069994D01*
X104000500Y-101069994D01*
X104000500Y-98999999D01*
X118024341Y-98999999D01*
X118024341Y-99000000D01*
X118044936Y-99235403D01*
X118044938Y-99235413D01*
X118106094Y-99463655D01*
X118106096Y-99463659D01*
X118106097Y-99463663D01*
X118178765Y-99619500D01*
X118205965Y-99677830D01*
X118205967Y-99677834D01*
X118314281Y-99832521D01*
X118341505Y-99871401D01*
X118508599Y-100038495D01*
X118605384Y-100106265D01*
X118702165Y-100174032D01*
X118702167Y-100174033D01*
X118702170Y-100174035D01*
X118916337Y-100273903D01*
X119144592Y-100335063D01*
X119332918Y-100351539D01*
X119379999Y-100355659D01*
X119380000Y-100355659D01*
X119380001Y-100355659D01*
X119419234Y-100352226D01*
X119615408Y-100335063D01*
X119843663Y-100273903D01*
X120057830Y-100174035D01*
X120251401Y-100038495D01*
X120418495Y-99871401D01*
X120554035Y-99677830D01*
X120653903Y-99463663D01*
X120715063Y-99235408D01*
X120735659Y-99000000D01*
X120735659Y-98999999D01*
X125644341Y-98999999D01*
X125644341Y-99000000D01*
X125664936Y-99235403D01*
X125664938Y-99235413D01*
X125726094Y-99463655D01*
X125726096Y-99463659D01*
X125726097Y-99463663D01*
X125798765Y-99619500D01*
X125825965Y-99677830D01*
X125825967Y-99677834D01*
X125934281Y-99832521D01*
X125961505Y-99871401D01*
X126128599Y-100038495D01*
X126225384Y-100106265D01*
X126322165Y-100174032D01*
X126322167Y-100174033D01*
X126322170Y-100174035D01*
X126536337Y-100273903D01*
X126764592Y-100335063D01*
X126952918Y-100351539D01*
X126999999Y-100355659D01*
X127000000Y-100355659D01*
X127000001Y-100355659D01*
X127039234Y-100352226D01*
X127235408Y-100335063D01*
X127463663Y-100273903D01*
X127677830Y-100174035D01*
X127871401Y-100038495D01*
X128038495Y-99871401D01*
X128174035Y-99677830D01*
X128273903Y-99463663D01*
X128335063Y-99235408D01*
X128355659Y-99000000D01*
X128335063Y-98764592D01*
X128273903Y-98536337D01*
X128174035Y-98322171D01*
X128124018Y-98250738D01*
X128038494Y-98128597D01*
X127871402Y-97961506D01*
X127871395Y-97961501D01*
X127677834Y-97825967D01*
X127677830Y-97825965D01*
X127618041Y-97798085D01*
X127463663Y-97726097D01*
X127463659Y-97726096D01*
X127463655Y-97726094D01*
X127235413Y-97664938D01*
X127235403Y-97664936D01*
X127000001Y-97644341D01*
X126999999Y-97644341D01*
X126764596Y-97664936D01*
X126764586Y-97664938D01*
X126536344Y-97726094D01*
X126536335Y-97726098D01*
X126322171Y-97825964D01*
X126322169Y-97825965D01*
X126128597Y-97961505D01*
X125961505Y-98128597D01*
X125825965Y-98322169D01*
X125825964Y-98322171D01*
X125726098Y-98536335D01*
X125726094Y-98536344D01*
X125664938Y-98764586D01*
X125664936Y-98764596D01*
X125644341Y-98999999D01*
X120735659Y-98999999D01*
X120715063Y-98764592D01*
X120653903Y-98536337D01*
X120554035Y-98322171D01*
X120504018Y-98250738D01*
X120418494Y-98128597D01*
X120251402Y-97961506D01*
X120251395Y-97961501D01*
X120057834Y-97825967D01*
X120057830Y-97825965D01*
X119998041Y-97798085D01*
X119843663Y-97726097D01*
X119843659Y-97726096D01*
X119843655Y-97726094D01*
X119615413Y-97664938D01*
X119615403Y-97664936D01*
X119380001Y-97644341D01*
X119379999Y-97644341D01*
X119144596Y-97664936D01*
X119144586Y-97664938D01*
X118916344Y-97726094D01*
X118916335Y-97726098D01*
X118702171Y-97825964D01*
X118702169Y-97825965D01*
X118508597Y-97961505D01*
X118341505Y-98128597D01*
X118205965Y-98322169D01*
X118205964Y-98322171D01*
X118106098Y-98536335D01*
X118106094Y-98536344D01*
X118044938Y-98764586D01*
X118044936Y-98764596D01*
X118024341Y-98999999D01*
X104000500Y-98999999D01*
X104000500Y-96569995D01*
X130384451Y-96569995D01*
X130384451Y-96570004D01*
X130404616Y-96839101D01*
X130464664Y-97102188D01*
X130464666Y-97102195D01*
X130563257Y-97353398D01*
X130698185Y-97587102D01*
X130809028Y-97726094D01*
X130866442Y-97798089D01*
X131042560Y-97961501D01*
X131064259Y-97981635D01*
X131287226Y-98133651D01*
X131530359Y-98250738D01*
X131788228Y-98330280D01*
X131788229Y-98330280D01*
X131788232Y-98330281D01*
X132055063Y-98370499D01*
X132055068Y-98370499D01*
X132055071Y-98370500D01*
X132055072Y-98370500D01*
X132324928Y-98370500D01*
X132324929Y-98370500D01*
X132324936Y-98370499D01*
X132591767Y-98330281D01*
X132591768Y-98330280D01*
X132591772Y-98330280D01*
X132849641Y-98250738D01*
X133092775Y-98133651D01*
X133315741Y-97981635D01*
X133483511Y-97825967D01*
X133513557Y-97798089D01*
X133513557Y-97798087D01*
X133513561Y-97798085D01*
X133681815Y-97587102D01*
X133816743Y-97353398D01*
X133915334Y-97102195D01*
X133975383Y-96839103D01*
X133983425Y-96731784D01*
X133995549Y-96570004D01*
X133995549Y-96569995D01*
X133975383Y-96300898D01*
X133967633Y-96266941D01*
X133915334Y-96037805D01*
X133816743Y-95786602D01*
X133681815Y-95552898D01*
X133513561Y-95341915D01*
X133513560Y-95341914D01*
X133513557Y-95341910D01*
X133315741Y-95158365D01*
X133092775Y-95006349D01*
X133092769Y-95006346D01*
X133092768Y-95006345D01*
X133092767Y-95006344D01*
X132849643Y-94889263D01*
X132849645Y-94889263D01*
X132591773Y-94809720D01*
X132591767Y-94809718D01*
X132324936Y-94769500D01*
X132324929Y-94769500D01*
X132055071Y-94769500D01*
X132055063Y-94769500D01*
X131788232Y-94809718D01*
X131788226Y-94809720D01*
X131530358Y-94889262D01*
X131287230Y-95006346D01*
X131064258Y-95158365D01*
X130866442Y-95341910D01*
X130698185Y-95552898D01*
X130563258Y-95786599D01*
X130563256Y-95786603D01*
X130464666Y-96037804D01*
X130464664Y-96037811D01*
X130404616Y-96300898D01*
X130384451Y-96569995D01*
X104000500Y-96569995D01*
X104000500Y-87569994D01*
X110734655Y-87569994D01*
X110734655Y-87570005D01*
X110754014Y-87877725D01*
X110754015Y-87877732D01*
X110811795Y-88180623D01*
X110907078Y-88473874D01*
X110907080Y-88473879D01*
X111038362Y-88752867D01*
X111038366Y-88752873D01*
X111203577Y-89013206D01*
X111203579Y-89013209D01*
X111203584Y-89013216D01*
X111400131Y-89250799D01*
X111400132Y-89250800D01*
X111624902Y-89461874D01*
X111624912Y-89461882D01*
X111874348Y-89643108D01*
X111874353Y-89643110D01*
X111874360Y-89643116D01*
X112144565Y-89791663D01*
X112144570Y-89791665D01*
X112144572Y-89791666D01*
X112144573Y-89791667D01*
X112431253Y-89905171D01*
X112431256Y-89905172D01*
X112729910Y-89981853D01*
X112729914Y-89981854D01*
X112794091Y-89989961D01*
X113035816Y-90020499D01*
X113035825Y-90020499D01*
X113035828Y-90020500D01*
X113035830Y-90020500D01*
X113344170Y-90020500D01*
X113344172Y-90020500D01*
X113344175Y-90020499D01*
X113344183Y-90020499D01*
X113526722Y-89997438D01*
X113650086Y-89981854D01*
X113948743Y-89905172D01*
X113948746Y-89905171D01*
X114235426Y-89791667D01*
X114235427Y-89791666D01*
X114235425Y-89791666D01*
X114235435Y-89791663D01*
X114505640Y-89643116D01*
X114755096Y-89461876D01*
X114979869Y-89250799D01*
X115176416Y-89013216D01*
X115341635Y-88752871D01*
X115472922Y-88473873D01*
X115568206Y-88180619D01*
X115625984Y-87877736D01*
X115625985Y-87877725D01*
X115645345Y-87570005D01*
X115645345Y-87569994D01*
X115625985Y-87262274D01*
X115625984Y-87262267D01*
X115625984Y-87262264D01*
X115568206Y-86959381D01*
X115472922Y-86666127D01*
X115472919Y-86666120D01*
X115341637Y-86387132D01*
X115341633Y-86387126D01*
X115176422Y-86126793D01*
X115176420Y-86126791D01*
X115176416Y-86126784D01*
X114979869Y-85889201D01*
X114755096Y-85678124D01*
X114755093Y-85678122D01*
X114755087Y-85678117D01*
X114505651Y-85496891D01*
X114505644Y-85496886D01*
X114505640Y-85496884D01*
X114235435Y-85348337D01*
X114235432Y-85348335D01*
X114235427Y-85348333D01*
X114235426Y-85348332D01*
X113948746Y-85234828D01*
X113948743Y-85234827D01*
X113650089Y-85158146D01*
X113650076Y-85158144D01*
X113344183Y-85119500D01*
X113344172Y-85119500D01*
X113035828Y-85119500D01*
X113035816Y-85119500D01*
X112729923Y-85158144D01*
X112729910Y-85158146D01*
X112431256Y-85234827D01*
X112431253Y-85234828D01*
X112144573Y-85348332D01*
X112144572Y-85348333D01*
X111874360Y-85496884D01*
X111874348Y-85496891D01*
X111624912Y-85678117D01*
X111624902Y-85678125D01*
X111400132Y-85889199D01*
X111325449Y-85979475D01*
X111232953Y-86091284D01*
X111203577Y-86126793D01*
X111038366Y-86387126D01*
X111038362Y-86387132D01*
X110907080Y-86666120D01*
X110907078Y-86666125D01*
X110811795Y-86959376D01*
X110754015Y-87262267D01*
X110754014Y-87262274D01*
X110734655Y-87569994D01*
X104000500Y-87569994D01*
X104000500Y-83999998D01*
X128194532Y-83999998D01*
X128194532Y-84000001D01*
X128214364Y-84226686D01*
X128214366Y-84226697D01*
X128273258Y-84446488D01*
X128273261Y-84446497D01*
X128369431Y-84652732D01*
X128369432Y-84652734D01*
X128499954Y-84839141D01*
X128660858Y-85000045D01*
X128660861Y-85000047D01*
X128847266Y-85130568D01*
X129053504Y-85226739D01*
X129053509Y-85226740D01*
X129053511Y-85226741D01*
X129106415Y-85240916D01*
X129273308Y-85285635D01*
X129435230Y-85299801D01*
X129499998Y-85305468D01*
X129500000Y-85305468D01*
X129500002Y-85305468D01*
X129556673Y-85300509D01*
X129726692Y-85285635D01*
X129946496Y-85226739D01*
X130152734Y-85130568D01*
X130339139Y-85000047D01*
X130500047Y-84839139D01*
X130630118Y-84653375D01*
X130684693Y-84609752D01*
X130731692Y-84600500D01*
X135768308Y-84600500D01*
X135835347Y-84620185D01*
X135869880Y-84653374D01*
X135955480Y-84775624D01*
X135999954Y-84839141D01*
X136160858Y-85000045D01*
X136160861Y-85000047D01*
X136347266Y-85130568D01*
X136553504Y-85226739D01*
X136553509Y-85226740D01*
X136553511Y-85226741D01*
X136606415Y-85240916D01*
X136773308Y-85285635D01*
X136935230Y-85299801D01*
X136999998Y-85305468D01*
X137000000Y-85305468D01*
X137000002Y-85305468D01*
X137056673Y-85300509D01*
X137226692Y-85285635D01*
X137446496Y-85226739D01*
X137652734Y-85130568D01*
X137839139Y-85000047D01*
X138000047Y-84839139D01*
X138130568Y-84652734D01*
X138226739Y-84446496D01*
X138285635Y-84226692D01*
X138305468Y-84000000D01*
X138302350Y-83964366D01*
X138285635Y-83773313D01*
X138285635Y-83773308D01*
X138226739Y-83553504D01*
X138130568Y-83347266D01*
X138000047Y-83160861D01*
X138000045Y-83160858D01*
X137839141Y-82999954D01*
X137652734Y-82869432D01*
X137652732Y-82869431D01*
X137446497Y-82773261D01*
X137446488Y-82773258D01*
X137226697Y-82714366D01*
X137226693Y-82714365D01*
X137226692Y-82714365D01*
X137226691Y-82714364D01*
X137226686Y-82714364D01*
X137000002Y-82694532D01*
X136999998Y-82694532D01*
X136773313Y-82714364D01*
X136773302Y-82714366D01*
X136553511Y-82773258D01*
X136553502Y-82773261D01*
X136347267Y-82869431D01*
X136347265Y-82869432D01*
X136160858Y-82999954D01*
X135999954Y-83160858D01*
X135978329Y-83191743D01*
X135869881Y-83346624D01*
X135815307Y-83390248D01*
X135768308Y-83399500D01*
X130731692Y-83399500D01*
X130664653Y-83379815D01*
X130630119Y-83346625D01*
X130500047Y-83160861D01*
X130500045Y-83160858D01*
X130339141Y-82999954D01*
X130152734Y-82869432D01*
X130152732Y-82869431D01*
X129946497Y-82773261D01*
X129946488Y-82773258D01*
X129726697Y-82714366D01*
X129726693Y-82714365D01*
X129726692Y-82714365D01*
X129726691Y-82714364D01*
X129726686Y-82714364D01*
X129500002Y-82694532D01*
X129499998Y-82694532D01*
X129273313Y-82714364D01*
X129273302Y-82714366D01*
X129053511Y-82773258D01*
X129053502Y-82773261D01*
X128847267Y-82869431D01*
X128847265Y-82869432D01*
X128660858Y-82999954D01*
X128499954Y-83160858D01*
X128369432Y-83347265D01*
X128369431Y-83347267D01*
X128273261Y-83553502D01*
X128273258Y-83553511D01*
X128214366Y-83773302D01*
X128214364Y-83773313D01*
X128194532Y-83999998D01*
X104000500Y-83999998D01*
X104000500Y-76139999D01*
X118024341Y-76139999D01*
X118024341Y-76140000D01*
X118044936Y-76375403D01*
X118044938Y-76375413D01*
X118106094Y-76603655D01*
X118106096Y-76603659D01*
X118106097Y-76603663D01*
X118147618Y-76692705D01*
X118205965Y-76817830D01*
X118205967Y-76817834D01*
X118216853Y-76833380D01*
X118341505Y-77011401D01*
X118508599Y-77178495D01*
X118605384Y-77246265D01*
X118702165Y-77314032D01*
X118702167Y-77314033D01*
X118702170Y-77314035D01*
X118916337Y-77413903D01*
X119144592Y-77475063D01*
X119330383Y-77491318D01*
X119379999Y-77495659D01*
X119380000Y-77495659D01*
X119380001Y-77495659D01*
X119419234Y-77492226D01*
X119615408Y-77475063D01*
X119843663Y-77413903D01*
X120057830Y-77314035D01*
X120251401Y-77178495D01*
X120418495Y-77011401D01*
X120554035Y-76817830D01*
X120653903Y-76603663D01*
X120715063Y-76375408D01*
X120735659Y-76140000D01*
X120735659Y-76139999D01*
X125644341Y-76139999D01*
X125644341Y-76140000D01*
X125664936Y-76375403D01*
X125664938Y-76375413D01*
X125726094Y-76603655D01*
X125726096Y-76603659D01*
X125726097Y-76603663D01*
X125767618Y-76692705D01*
X125825965Y-76817830D01*
X125825967Y-76817834D01*
X125836853Y-76833380D01*
X125961505Y-77011401D01*
X126128599Y-77178495D01*
X126225384Y-77246265D01*
X126322165Y-77314032D01*
X126322167Y-77314033D01*
X126322170Y-77314035D01*
X126536337Y-77413903D01*
X126764592Y-77475063D01*
X126950383Y-77491318D01*
X126999999Y-77495659D01*
X127000000Y-77495659D01*
X127000001Y-77495659D01*
X127039234Y-77492226D01*
X127235408Y-77475063D01*
X127463663Y-77413903D01*
X127677830Y-77314035D01*
X127871401Y-77178495D01*
X128038495Y-77011401D01*
X128174035Y-76817830D01*
X128273903Y-76603663D01*
X128335063Y-76375408D01*
X128355659Y-76140000D01*
X128335063Y-75904592D01*
X128273903Y-75676337D01*
X128174035Y-75462171D01*
X128138106Y-75410858D01*
X128038494Y-75268597D01*
X127871402Y-75101506D01*
X127871395Y-75101501D01*
X127677834Y-74965967D01*
X127677830Y-74965965D01*
X127558885Y-74910500D01*
X127463663Y-74866097D01*
X127463659Y-74866096D01*
X127463655Y-74866094D01*
X127235413Y-74804938D01*
X127235403Y-74804936D01*
X127000001Y-74784341D01*
X126999999Y-74784341D01*
X126764596Y-74804936D01*
X126764586Y-74804938D01*
X126536344Y-74866094D01*
X126536335Y-74866098D01*
X126322171Y-74965964D01*
X126322169Y-74965965D01*
X126128597Y-75101505D01*
X125961505Y-75268597D01*
X125825965Y-75462169D01*
X125825964Y-75462171D01*
X125726098Y-75676335D01*
X125726094Y-75676344D01*
X125664938Y-75904586D01*
X125664936Y-75904596D01*
X125644341Y-76139999D01*
X120735659Y-76139999D01*
X120715063Y-75904592D01*
X120653903Y-75676337D01*
X120554035Y-75462171D01*
X120518106Y-75410858D01*
X120418494Y-75268597D01*
X120251402Y-75101506D01*
X120251395Y-75101501D01*
X120057834Y-74965967D01*
X120057830Y-74965965D01*
X119938885Y-74910500D01*
X119843663Y-74866097D01*
X119843659Y-74866096D01*
X119843655Y-74866094D01*
X119615413Y-74804938D01*
X119615403Y-74804936D01*
X119380001Y-74784341D01*
X119379999Y-74784341D01*
X119144596Y-74804936D01*
X119144586Y-74804938D01*
X118916344Y-74866094D01*
X118916335Y-74866098D01*
X118702171Y-74965964D01*
X118702169Y-74965965D01*
X118508597Y-75101505D01*
X118341505Y-75268597D01*
X118205965Y-75462169D01*
X118205964Y-75462171D01*
X118106098Y-75676335D01*
X118106094Y-75676344D01*
X118044938Y-75904586D01*
X118044936Y-75904596D01*
X118024341Y-76139999D01*
X104000500Y-76139999D01*
X104000500Y-74069994D01*
X121734529Y-74069994D01*
X121734529Y-74070005D01*
X121754379Y-74309559D01*
X121813389Y-74542589D01*
X121909951Y-74762729D01*
X121977486Y-74866098D01*
X122041429Y-74963969D01*
X122204236Y-75140825D01*
X122204239Y-75140827D01*
X122204242Y-75140830D01*
X122393924Y-75288466D01*
X122393930Y-75288470D01*
X122393933Y-75288472D01*
X122605344Y-75402882D01*
X122605347Y-75402883D01*
X122832699Y-75480933D01*
X122832701Y-75480933D01*
X122832703Y-75480934D01*
X123069808Y-75520500D01*
X123069809Y-75520500D01*
X123310191Y-75520500D01*
X123310192Y-75520500D01*
X123547297Y-75480934D01*
X123774656Y-75402882D01*
X123986067Y-75288472D01*
X124011603Y-75268597D01*
X124049768Y-75238891D01*
X124175764Y-75140825D01*
X124338571Y-74963969D01*
X124470049Y-74762728D01*
X124566610Y-74542591D01*
X124625620Y-74309563D01*
X124645471Y-74070000D01*
X124625620Y-73830437D01*
X124566610Y-73597409D01*
X124470049Y-73377272D01*
X124338571Y-73176031D01*
X124175764Y-72999175D01*
X124175759Y-72999171D01*
X124175757Y-72999169D01*
X123986075Y-72851533D01*
X123986069Y-72851529D01*
X123774657Y-72737118D01*
X123774652Y-72737116D01*
X123547300Y-72659066D01*
X123369468Y-72629391D01*
X123310192Y-72619500D01*
X123069808Y-72619500D01*
X123022387Y-72627413D01*
X122832699Y-72659066D01*
X122605347Y-72737116D01*
X122605342Y-72737118D01*
X122393930Y-72851529D01*
X122393924Y-72851533D01*
X122204242Y-72999169D01*
X122204239Y-72999172D01*
X122041430Y-73176029D01*
X122041427Y-73176033D01*
X121909951Y-73377270D01*
X121813389Y-73597410D01*
X121754379Y-73830440D01*
X121734529Y-74069994D01*
X104000500Y-74069994D01*
X104000500Y-68124500D01*
X104020185Y-68057461D01*
X104072989Y-68011706D01*
X104124500Y-68000500D01*
X171375500Y-68000500D01*
X171442539Y-68020185D01*
G37*
%TD.AperFunction*%
%TD*%
M02*
