%TF.GenerationSoftware,KiCad,Pcbnew,8.0.8*%
%TF.CreationDate,2025-02-12T17:19:00-08:00*%
%TF.ProjectId,Lab3v2,4c616233-7632-42e6-9b69-6361645f7063,V1*%
%TF.SameCoordinates,Original*%
%TF.FileFunction,Legend,Top*%
%TF.FilePolarity,Positive*%
%FSLAX46Y46*%
G04 Gerber Fmt 4.6, Leading zero omitted, Abs format (unit mm)*
G04 Created by KiCad (PCBNEW 8.0.8) date 2025-02-12 17:19:00*
%MOMM*%
%LPD*%
G01*
G04 APERTURE LIST*
%ADD10C,0.150000*%
%ADD11C,0.100000*%
%ADD12C,0.120000*%
G04 APERTURE END LIST*
D10*
X107916667Y-118067200D02*
X108059524Y-118114819D01*
X108059524Y-118114819D02*
X108297619Y-118114819D01*
X108297619Y-118114819D02*
X108392857Y-118067200D01*
X108392857Y-118067200D02*
X108440476Y-118019580D01*
X108440476Y-118019580D02*
X108488095Y-117924342D01*
X108488095Y-117924342D02*
X108488095Y-117829104D01*
X108488095Y-117829104D02*
X108440476Y-117733866D01*
X108440476Y-117733866D02*
X108392857Y-117686247D01*
X108392857Y-117686247D02*
X108297619Y-117638628D01*
X108297619Y-117638628D02*
X108107143Y-117591009D01*
X108107143Y-117591009D02*
X108011905Y-117543390D01*
X108011905Y-117543390D02*
X107964286Y-117495771D01*
X107964286Y-117495771D02*
X107916667Y-117400533D01*
X107916667Y-117400533D02*
X107916667Y-117305295D01*
X107916667Y-117305295D02*
X107964286Y-117210057D01*
X107964286Y-117210057D02*
X108011905Y-117162438D01*
X108011905Y-117162438D02*
X108107143Y-117114819D01*
X108107143Y-117114819D02*
X108345238Y-117114819D01*
X108345238Y-117114819D02*
X108488095Y-117162438D01*
X108821429Y-117114819D02*
X109059524Y-118114819D01*
X109059524Y-118114819D02*
X109250000Y-117400533D01*
X109250000Y-117400533D02*
X109440476Y-118114819D01*
X109440476Y-118114819D02*
X109678572Y-117114819D01*
X110583333Y-118114819D02*
X110011905Y-118114819D01*
X110297619Y-118114819D02*
X110297619Y-117114819D01*
X110297619Y-117114819D02*
X110202381Y-117257676D01*
X110202381Y-117257676D02*
X110107143Y-117352914D01*
X110107143Y-117352914D02*
X110011905Y-117400533D01*
X131304819Y-111763094D02*
X130304819Y-111763094D01*
X130304819Y-111763094D02*
X130304819Y-111524999D01*
X130304819Y-111524999D02*
X130352438Y-111382142D01*
X130352438Y-111382142D02*
X130447676Y-111286904D01*
X130447676Y-111286904D02*
X130542914Y-111239285D01*
X130542914Y-111239285D02*
X130733390Y-111191666D01*
X130733390Y-111191666D02*
X130876247Y-111191666D01*
X130876247Y-111191666D02*
X131066723Y-111239285D01*
X131066723Y-111239285D02*
X131161961Y-111286904D01*
X131161961Y-111286904D02*
X131257200Y-111382142D01*
X131257200Y-111382142D02*
X131304819Y-111524999D01*
X131304819Y-111524999D02*
X131304819Y-111763094D01*
X130638152Y-110334523D02*
X131304819Y-110334523D01*
X130257200Y-110572618D02*
X130971485Y-110810713D01*
X130971485Y-110810713D02*
X130971485Y-110191666D01*
X150685009Y-111266666D02*
X150732628Y-111123809D01*
X150732628Y-111123809D02*
X150780247Y-111076190D01*
X150780247Y-111076190D02*
X150875485Y-111028571D01*
X150875485Y-111028571D02*
X151018342Y-111028571D01*
X151018342Y-111028571D02*
X151113580Y-111076190D01*
X151113580Y-111076190D02*
X151161200Y-111123809D01*
X151161200Y-111123809D02*
X151208819Y-111219047D01*
X151208819Y-111219047D02*
X151208819Y-111599999D01*
X151208819Y-111599999D02*
X150208819Y-111599999D01*
X150208819Y-111599999D02*
X150208819Y-111266666D01*
X150208819Y-111266666D02*
X150256438Y-111171428D01*
X150256438Y-111171428D02*
X150304057Y-111123809D01*
X150304057Y-111123809D02*
X150399295Y-111076190D01*
X150399295Y-111076190D02*
X150494533Y-111076190D01*
X150494533Y-111076190D02*
X150589771Y-111123809D01*
X150589771Y-111123809D02*
X150637390Y-111171428D01*
X150637390Y-111171428D02*
X150685009Y-111266666D01*
X150685009Y-111266666D02*
X150685009Y-111599999D01*
X151208819Y-110599999D02*
X150542152Y-110599999D01*
X150732628Y-110599999D02*
X150637390Y-110552380D01*
X150637390Y-110552380D02*
X150589771Y-110504761D01*
X150589771Y-110504761D02*
X150542152Y-110409523D01*
X150542152Y-110409523D02*
X150542152Y-110314285D01*
X151208819Y-109552380D02*
X150208819Y-109552380D01*
X151161200Y-109552380D02*
X151208819Y-109647618D01*
X151208819Y-109647618D02*
X151208819Y-109838094D01*
X151208819Y-109838094D02*
X151161200Y-109933332D01*
X151161200Y-109933332D02*
X151113580Y-109980951D01*
X151113580Y-109980951D02*
X151018342Y-110028570D01*
X151018342Y-110028570D02*
X150732628Y-110028570D01*
X150732628Y-110028570D02*
X150637390Y-109980951D01*
X150637390Y-109980951D02*
X150589771Y-109933332D01*
X150589771Y-109933332D02*
X150542152Y-109838094D01*
X150542152Y-109838094D02*
X150542152Y-109647618D01*
X150542152Y-109647618D02*
X150589771Y-109552380D01*
X151208819Y-108552380D02*
X151208819Y-109123808D01*
X151208819Y-108838094D02*
X150208819Y-108838094D01*
X150208819Y-108838094D02*
X150351676Y-108933332D01*
X150351676Y-108933332D02*
X150446914Y-109028570D01*
X150446914Y-109028570D02*
X150494533Y-109123808D01*
D11*
X120957419Y-87809523D02*
X119957419Y-87809523D01*
X119957419Y-87809523D02*
X120671704Y-87476190D01*
X120671704Y-87476190D02*
X119957419Y-87142857D01*
X119957419Y-87142857D02*
X120957419Y-87142857D01*
X120957419Y-86142857D02*
X120957419Y-86714285D01*
X120957419Y-86428571D02*
X119957419Y-86428571D01*
X119957419Y-86428571D02*
X120100276Y-86523809D01*
X120100276Y-86523809D02*
X120195514Y-86619047D01*
X120195514Y-86619047D02*
X120243133Y-86714285D01*
D10*
X133333333Y-121454819D02*
X133000000Y-120978628D01*
X132761905Y-121454819D02*
X132761905Y-120454819D01*
X132761905Y-120454819D02*
X133142857Y-120454819D01*
X133142857Y-120454819D02*
X133238095Y-120502438D01*
X133238095Y-120502438D02*
X133285714Y-120550057D01*
X133285714Y-120550057D02*
X133333333Y-120645295D01*
X133333333Y-120645295D02*
X133333333Y-120788152D01*
X133333333Y-120788152D02*
X133285714Y-120883390D01*
X133285714Y-120883390D02*
X133238095Y-120931009D01*
X133238095Y-120931009D02*
X133142857Y-120978628D01*
X133142857Y-120978628D02*
X132761905Y-120978628D01*
X134238095Y-120454819D02*
X133761905Y-120454819D01*
X133761905Y-120454819D02*
X133714286Y-120931009D01*
X133714286Y-120931009D02*
X133761905Y-120883390D01*
X133761905Y-120883390D02*
X133857143Y-120835771D01*
X133857143Y-120835771D02*
X134095238Y-120835771D01*
X134095238Y-120835771D02*
X134190476Y-120883390D01*
X134190476Y-120883390D02*
X134238095Y-120931009D01*
X134238095Y-120931009D02*
X134285714Y-121026247D01*
X134285714Y-121026247D02*
X134285714Y-121264342D01*
X134285714Y-121264342D02*
X134238095Y-121359580D01*
X134238095Y-121359580D02*
X134190476Y-121407200D01*
X134190476Y-121407200D02*
X134095238Y-121454819D01*
X134095238Y-121454819D02*
X133857143Y-121454819D01*
X133857143Y-121454819D02*
X133761905Y-121407200D01*
X133761905Y-121407200D02*
X133714286Y-121359580D01*
D11*
X150888095Y-69177419D02*
X150888095Y-69986942D01*
X150888095Y-69986942D02*
X150935714Y-70082180D01*
X150935714Y-70082180D02*
X150983333Y-70129800D01*
X150983333Y-70129800D02*
X151078571Y-70177419D01*
X151078571Y-70177419D02*
X151269047Y-70177419D01*
X151269047Y-70177419D02*
X151364285Y-70129800D01*
X151364285Y-70129800D02*
X151411904Y-70082180D01*
X151411904Y-70082180D02*
X151459523Y-69986942D01*
X151459523Y-69986942D02*
X151459523Y-69177419D01*
X151840476Y-69177419D02*
X152459523Y-69177419D01*
X152459523Y-69177419D02*
X152126190Y-69558371D01*
X152126190Y-69558371D02*
X152269047Y-69558371D01*
X152269047Y-69558371D02*
X152364285Y-69605990D01*
X152364285Y-69605990D02*
X152411904Y-69653609D01*
X152411904Y-69653609D02*
X152459523Y-69748847D01*
X152459523Y-69748847D02*
X152459523Y-69986942D01*
X152459523Y-69986942D02*
X152411904Y-70082180D01*
X152411904Y-70082180D02*
X152364285Y-70129800D01*
X152364285Y-70129800D02*
X152269047Y-70177419D01*
X152269047Y-70177419D02*
X151983333Y-70177419D01*
X151983333Y-70177419D02*
X151888095Y-70129800D01*
X151888095Y-70129800D02*
X151840476Y-70082180D01*
D10*
X162031009Y-85785714D02*
X162078628Y-85642857D01*
X162078628Y-85642857D02*
X162126247Y-85595238D01*
X162126247Y-85595238D02*
X162221485Y-85547619D01*
X162221485Y-85547619D02*
X162364342Y-85547619D01*
X162364342Y-85547619D02*
X162459580Y-85595238D01*
X162459580Y-85595238D02*
X162507200Y-85642857D01*
X162507200Y-85642857D02*
X162554819Y-85738095D01*
X162554819Y-85738095D02*
X162554819Y-86119047D01*
X162554819Y-86119047D02*
X161554819Y-86119047D01*
X161554819Y-86119047D02*
X161554819Y-85785714D01*
X161554819Y-85785714D02*
X161602438Y-85690476D01*
X161602438Y-85690476D02*
X161650057Y-85642857D01*
X161650057Y-85642857D02*
X161745295Y-85595238D01*
X161745295Y-85595238D02*
X161840533Y-85595238D01*
X161840533Y-85595238D02*
X161935771Y-85642857D01*
X161935771Y-85642857D02*
X161983390Y-85690476D01*
X161983390Y-85690476D02*
X162031009Y-85785714D01*
X162031009Y-85785714D02*
X162031009Y-86119047D01*
X161554819Y-85261904D02*
X161554819Y-84690476D01*
X162554819Y-84976190D02*
X161554819Y-84976190D01*
X162554819Y-83833333D02*
X162554819Y-84404761D01*
X162554819Y-84119047D02*
X161554819Y-84119047D01*
X161554819Y-84119047D02*
X161697676Y-84214285D01*
X161697676Y-84214285D02*
X161792914Y-84309523D01*
X161792914Y-84309523D02*
X161840533Y-84404761D01*
D12*
%TO.C,SW1*%
X110580000Y-116660000D02*
X109250000Y-116660000D01*
X110580000Y-115330000D02*
X110580000Y-116660000D01*
X110580000Y-114060000D02*
X110580000Y-108920000D01*
X110580000Y-114060000D02*
X107920000Y-114060000D01*
X110580000Y-108920000D02*
X107920000Y-108920000D01*
X107920000Y-114060000D02*
X107920000Y-108920000D01*
%TO.C,D4*%
X131540000Y-110025000D02*
X131540000Y-112885000D01*
X133460000Y-112885000D02*
X133460000Y-110025000D01*
X131540000Y-112885000D02*
X133460000Y-112885000D01*
%TO.C,Brd1*%
X138200000Y-123500000D02*
X138200000Y-96100000D01*
X165500000Y-123500000D02*
X138200000Y-123500000D01*
X141495000Y-123078000D02*
X141495000Y-99978000D01*
X158095000Y-123078000D02*
X141495000Y-123078000D01*
X138689000Y-114799000D02*
X141102000Y-114799000D01*
X138689000Y-114799000D02*
X138689000Y-105020000D01*
X138689000Y-105020000D02*
X141102000Y-105020000D01*
X141102000Y-105020000D02*
X141102000Y-114799000D01*
X141495000Y-99978000D02*
X141495000Y-96892000D01*
X158095000Y-99978000D02*
X158095000Y-123078000D01*
X158095000Y-99978000D02*
X158120000Y-96638000D01*
X141483000Y-96638000D02*
X141495000Y-96892000D01*
X158120000Y-96638000D02*
X141483000Y-96638000D01*
X138200000Y-96100000D02*
X165500000Y-96100000D01*
X165500000Y-96100000D02*
X165500000Y-123500000D01*
%TO.C,R5*%
X133272936Y-117265000D02*
X133727064Y-117265000D01*
X133272936Y-118735000D02*
X133727064Y-118735000D01*
D11*
%TO.C,U3*%
X146570000Y-73760000D02*
X146570000Y-77570000D01*
X146570000Y-77570000D02*
X154190000Y-77570000D01*
X154190000Y-77570000D02*
X154190000Y-73760000D01*
D12*
%TO.C,BT1*%
X167910000Y-81940000D02*
X163190000Y-81940000D01*
X165800000Y-81940000D02*
X165800000Y-82550000D01*
X164500000Y-81940000D02*
X164500000Y-82550000D01*
X163190000Y-81940000D02*
X163190000Y-88060000D01*
X167300000Y-82550000D02*
X163800000Y-82550000D01*
X163800000Y-82550000D02*
X163800000Y-84500000D01*
X163800000Y-84500000D02*
X163190000Y-84500000D01*
X166800000Y-84900000D02*
X167300000Y-84900000D01*
X167300000Y-85000000D02*
X166800000Y-85000000D01*
X167300000Y-85100000D02*
X166800000Y-85100000D01*
X166800000Y-85100000D02*
X166800000Y-84900000D01*
X163800000Y-85500000D02*
X163800000Y-87450000D01*
X163190000Y-85500000D02*
X163800000Y-85500000D01*
X163190000Y-86300000D02*
X162990000Y-86300000D01*
X163090000Y-86300000D02*
X163090000Y-86600000D01*
X162990000Y-86300000D02*
X162990000Y-86600000D01*
X162990000Y-86600000D02*
X163190000Y-86600000D01*
X162890000Y-87110000D02*
X162890000Y-88360000D01*
X167300000Y-87450000D02*
X167300000Y-82550000D01*
X163800000Y-87450000D02*
X167300000Y-87450000D01*
X167910000Y-88060000D02*
X167910000Y-81940000D01*
X165800000Y-88060000D02*
X165800000Y-87450000D01*
X164500000Y-88060000D02*
X164500000Y-87450000D01*
X163190000Y-88060000D02*
X167910000Y-88060000D01*
X162890000Y-88360000D02*
X164140000Y-88360000D01*
%TD*%
M02*
