%TF.GenerationSoftware,KiCad,Pcbnew,8.0.8*%
%TF.CreationDate,2025-02-27T00:02:59-08:00*%
%TF.ProjectId,Lab3v2,4c616233-7632-42e6-9b69-6361645f7063,V1*%
%TF.SameCoordinates,Original*%
%TF.FileFunction,Legend,Top*%
%TF.FilePolarity,Positive*%
%FSLAX46Y46*%
G04 Gerber Fmt 4.6, Leading zero omitted, Abs format (unit mm)*
G04 Created by KiCad (PCBNEW 8.0.8) date 2025-02-27 00:02:59*
%MOMM*%
%LPD*%
G01*
G04 APERTURE LIST*
%ADD10C,0.100000*%
%ADD11C,0.150000*%
%ADD12C,0.120000*%
G04 APERTURE END LIST*
D10*
G36*
X107954291Y-123580000D02*
G01*
X107853175Y-123580000D01*
X107853175Y-123148911D01*
X107480216Y-122579581D01*
X107606978Y-122579581D01*
X107903733Y-123051458D01*
X108200488Y-122579581D01*
X108327250Y-122579581D01*
X107954291Y-123148911D01*
X107954291Y-123580000D01*
G37*
G36*
X108776413Y-123580000D02*
G01*
X108772849Y-123530268D01*
X108772749Y-123526999D01*
X108772262Y-123477110D01*
X108772260Y-123473754D01*
X108769330Y-123473754D01*
X108738682Y-123514274D01*
X108730006Y-123522847D01*
X108690943Y-123552980D01*
X108676517Y-123561437D01*
X108630126Y-123581404D01*
X108613747Y-123586350D01*
X108564700Y-123595051D01*
X108548534Y-123595631D01*
X108496243Y-123592452D01*
X108444238Y-123581034D01*
X108395623Y-123558262D01*
X108361200Y-123529197D01*
X108332037Y-123487228D01*
X108312419Y-123436332D01*
X108302993Y-123383599D01*
X108300872Y-123339420D01*
X108300872Y-122923475D01*
X108393684Y-122923475D01*
X108393684Y-123289839D01*
X108395509Y-123338797D01*
X108401988Y-123387536D01*
X108417254Y-123435202D01*
X108430809Y-123458855D01*
X108467493Y-123493093D01*
X108485764Y-123502575D01*
X108535681Y-123515378D01*
X108572226Y-123517473D01*
X108611549Y-123511856D01*
X108657831Y-123494781D01*
X108679937Y-123480837D01*
X108715879Y-123446489D01*
X108743928Y-123404389D01*
X108762114Y-123356424D01*
X108770261Y-123305700D01*
X108772016Y-123262972D01*
X108772016Y-122923475D01*
X108864829Y-122923475D01*
X108864829Y-123435408D01*
X108866170Y-123485884D01*
X108867027Y-123503063D01*
X108869965Y-123552121D01*
X108871912Y-123580000D01*
X108776413Y-123580000D01*
G37*
G36*
X109972470Y-122751528D02*
G01*
X109935604Y-122710495D01*
X109891198Y-122681186D01*
X109839251Y-122663600D01*
X109787611Y-122657830D01*
X109779762Y-122657739D01*
X109731085Y-122661936D01*
X109702337Y-122668485D01*
X109655695Y-122687534D01*
X109633949Y-122701458D01*
X109598183Y-122737802D01*
X109585589Y-122758367D01*
X109569847Y-122806795D01*
X109567271Y-122840432D01*
X109573519Y-122890959D01*
X109596256Y-122936736D01*
X109605129Y-122946678D01*
X109644820Y-122979042D01*
X109689032Y-123004020D01*
X109699406Y-123008715D01*
X109746941Y-123027475D01*
X109793824Y-123043217D01*
X109822505Y-123051702D01*
X109871185Y-123067593D01*
X109916844Y-123087056D01*
X109945603Y-123102016D01*
X109988381Y-123130763D01*
X110025032Y-123166202D01*
X110039881Y-123184815D01*
X110063099Y-123228755D01*
X110074969Y-123278328D01*
X110077983Y-123325498D01*
X110073226Y-123377696D01*
X110058957Y-123425541D01*
X110049162Y-123446154D01*
X110020438Y-123489805D01*
X109984701Y-123526724D01*
X109973203Y-123536036D01*
X109929806Y-123564486D01*
X109882108Y-123586579D01*
X109867690Y-123591723D01*
X109820140Y-123604374D01*
X109768662Y-123610786D01*
X109750209Y-123611263D01*
X109699423Y-123608481D01*
X109650106Y-123600134D01*
X109602256Y-123586224D01*
X109576308Y-123576092D01*
X109531960Y-123552596D01*
X109491515Y-123521953D01*
X109454972Y-123484161D01*
X109436357Y-123460076D01*
X109527704Y-123392421D01*
X109558091Y-123434752D01*
X109596863Y-123469667D01*
X109617585Y-123483279D01*
X109663919Y-123504116D01*
X109716091Y-123515336D01*
X109754117Y-123517473D01*
X109804020Y-123512424D01*
X109830076Y-123505750D01*
X109876719Y-123485414D01*
X109898464Y-123471067D01*
X109933587Y-123436411D01*
X109948290Y-123414647D01*
X109965736Y-123366627D01*
X109968073Y-123338199D01*
X109961870Y-123288597D01*
X109946092Y-123252958D01*
X109913386Y-123214605D01*
X109888450Y-123195806D01*
X109845088Y-123172450D01*
X109806873Y-123157704D01*
X109760467Y-123142255D01*
X109712595Y-123126685D01*
X109664846Y-123110015D01*
X109618318Y-123091270D01*
X109572547Y-123067216D01*
X109536741Y-123040956D01*
X109502713Y-123004174D01*
X109479099Y-122964508D01*
X109463497Y-122916132D01*
X109457701Y-122865959D01*
X109457362Y-122848981D01*
X109461209Y-122797335D01*
X109474058Y-122747199D01*
X109484717Y-122722707D01*
X109512326Y-122679030D01*
X109546854Y-122642458D01*
X109557990Y-122633314D01*
X109600245Y-122605879D01*
X109647081Y-122585549D01*
X109661304Y-122581046D01*
X109712302Y-122569359D01*
X109764421Y-122564216D01*
X109779518Y-122563949D01*
X109830809Y-122566525D01*
X109879047Y-122574253D01*
X109928582Y-122588705D01*
X109932903Y-122590327D01*
X109979101Y-122613225D01*
X110019095Y-122642305D01*
X110057182Y-122679256D01*
X110060886Y-122683384D01*
X109972470Y-122751528D01*
G37*
G36*
X110245045Y-122517055D02*
G01*
X110337857Y-122517055D01*
X110337857Y-123029720D01*
X110340788Y-123029720D01*
X110371436Y-122989200D01*
X110380111Y-122980628D01*
X110419037Y-122950631D01*
X110433356Y-122942281D01*
X110479610Y-122922086D01*
X110495882Y-122917124D01*
X110545296Y-122908423D01*
X110561584Y-122907843D01*
X110613768Y-122911034D01*
X110665650Y-122922494D01*
X110714129Y-122945350D01*
X110748429Y-122974521D01*
X110777710Y-123016373D01*
X110797408Y-123067189D01*
X110806872Y-123119884D01*
X110809002Y-123164054D01*
X110809002Y-123580000D01*
X110716189Y-123580000D01*
X110716189Y-123213635D01*
X110713808Y-123161779D01*
X110705436Y-123111142D01*
X110689064Y-123064440D01*
X110678087Y-123044863D01*
X110640592Y-123008994D01*
X110590230Y-122990657D01*
X110537648Y-122986001D01*
X110498080Y-122991618D01*
X110452019Y-123008809D01*
X110429937Y-123022882D01*
X110393995Y-123057108D01*
X110365945Y-123099330D01*
X110347759Y-123147137D01*
X110339613Y-123197790D01*
X110337857Y-123240502D01*
X110337857Y-123580000D01*
X110245045Y-123580000D01*
X110245045Y-122517055D01*
G37*
G36*
X111157780Y-122665554D02*
G01*
X111140329Y-122712307D01*
X111136531Y-122716113D01*
X111090369Y-122735896D01*
X111045051Y-122717330D01*
X111043719Y-122716113D01*
X111022899Y-122671228D01*
X111022714Y-122665554D01*
X111039965Y-122618802D01*
X111043719Y-122614996D01*
X111088786Y-122595232D01*
X111090369Y-122595212D01*
X111136531Y-122614996D01*
X111157594Y-122659881D01*
X111157780Y-122665554D01*
G37*
G36*
X111136531Y-123580000D02*
G01*
X111043719Y-123580000D01*
X111043719Y-122923475D01*
X111136531Y-122923475D01*
X111136531Y-123580000D01*
G37*
D11*
X121914819Y-84258094D02*
X120914819Y-84258094D01*
X120914819Y-84258094D02*
X120914819Y-84019999D01*
X120914819Y-84019999D02*
X120962438Y-83877142D01*
X120962438Y-83877142D02*
X121057676Y-83781904D01*
X121057676Y-83781904D02*
X121152914Y-83734285D01*
X121152914Y-83734285D02*
X121343390Y-83686666D01*
X121343390Y-83686666D02*
X121486247Y-83686666D01*
X121486247Y-83686666D02*
X121676723Y-83734285D01*
X121676723Y-83734285D02*
X121771961Y-83781904D01*
X121771961Y-83781904D02*
X121867200Y-83877142D01*
X121867200Y-83877142D02*
X121914819Y-84019999D01*
X121914819Y-84019999D02*
X121914819Y-84258094D01*
X121248152Y-82829523D02*
X121914819Y-82829523D01*
X120867200Y-83067618D02*
X121581485Y-83305713D01*
X121581485Y-83305713D02*
X121581485Y-82686666D01*
X154327009Y-110286666D02*
X154374628Y-110143809D01*
X154374628Y-110143809D02*
X154422247Y-110096190D01*
X154422247Y-110096190D02*
X154517485Y-110048571D01*
X154517485Y-110048571D02*
X154660342Y-110048571D01*
X154660342Y-110048571D02*
X154755580Y-110096190D01*
X154755580Y-110096190D02*
X154803200Y-110143809D01*
X154803200Y-110143809D02*
X154850819Y-110239047D01*
X154850819Y-110239047D02*
X154850819Y-110619999D01*
X154850819Y-110619999D02*
X153850819Y-110619999D01*
X153850819Y-110619999D02*
X153850819Y-110286666D01*
X153850819Y-110286666D02*
X153898438Y-110191428D01*
X153898438Y-110191428D02*
X153946057Y-110143809D01*
X153946057Y-110143809D02*
X154041295Y-110096190D01*
X154041295Y-110096190D02*
X154136533Y-110096190D01*
X154136533Y-110096190D02*
X154231771Y-110143809D01*
X154231771Y-110143809D02*
X154279390Y-110191428D01*
X154279390Y-110191428D02*
X154327009Y-110286666D01*
X154327009Y-110286666D02*
X154327009Y-110619999D01*
X154850819Y-109619999D02*
X154184152Y-109619999D01*
X154374628Y-109619999D02*
X154279390Y-109572380D01*
X154279390Y-109572380D02*
X154231771Y-109524761D01*
X154231771Y-109524761D02*
X154184152Y-109429523D01*
X154184152Y-109429523D02*
X154184152Y-109334285D01*
X154850819Y-108572380D02*
X153850819Y-108572380D01*
X154803200Y-108572380D02*
X154850819Y-108667618D01*
X154850819Y-108667618D02*
X154850819Y-108858094D01*
X154850819Y-108858094D02*
X154803200Y-108953332D01*
X154803200Y-108953332D02*
X154755580Y-109000951D01*
X154755580Y-109000951D02*
X154660342Y-109048570D01*
X154660342Y-109048570D02*
X154374628Y-109048570D01*
X154374628Y-109048570D02*
X154279390Y-109000951D01*
X154279390Y-109000951D02*
X154231771Y-108953332D01*
X154231771Y-108953332D02*
X154184152Y-108858094D01*
X154184152Y-108858094D02*
X154184152Y-108667618D01*
X154184152Y-108667618D02*
X154231771Y-108572380D01*
X154850819Y-107572380D02*
X154850819Y-108143808D01*
X154850819Y-107858094D02*
X153850819Y-107858094D01*
X153850819Y-107858094D02*
X153993676Y-107953332D01*
X153993676Y-107953332D02*
X154088914Y-108048570D01*
X154088914Y-108048570D02*
X154136533Y-108143808D01*
D10*
X120607419Y-109279523D02*
X119607419Y-109279523D01*
X119607419Y-109279523D02*
X120321704Y-108946190D01*
X120321704Y-108946190D02*
X119607419Y-108612857D01*
X119607419Y-108612857D02*
X120607419Y-108612857D01*
X120607419Y-107612857D02*
X120607419Y-108184285D01*
X120607419Y-107898571D02*
X119607419Y-107898571D01*
X119607419Y-107898571D02*
X119750276Y-107993809D01*
X119750276Y-107993809D02*
X119845514Y-108089047D01*
X119845514Y-108089047D02*
X119893133Y-108184285D01*
D11*
X130003333Y-74334819D02*
X129670000Y-73858628D01*
X129431905Y-74334819D02*
X129431905Y-73334819D01*
X129431905Y-73334819D02*
X129812857Y-73334819D01*
X129812857Y-73334819D02*
X129908095Y-73382438D01*
X129908095Y-73382438D02*
X129955714Y-73430057D01*
X129955714Y-73430057D02*
X130003333Y-73525295D01*
X130003333Y-73525295D02*
X130003333Y-73668152D01*
X130003333Y-73668152D02*
X129955714Y-73763390D01*
X129955714Y-73763390D02*
X129908095Y-73811009D01*
X129908095Y-73811009D02*
X129812857Y-73858628D01*
X129812857Y-73858628D02*
X129431905Y-73858628D01*
X130908095Y-73334819D02*
X130431905Y-73334819D01*
X130431905Y-73334819D02*
X130384286Y-73811009D01*
X130384286Y-73811009D02*
X130431905Y-73763390D01*
X130431905Y-73763390D02*
X130527143Y-73715771D01*
X130527143Y-73715771D02*
X130765238Y-73715771D01*
X130765238Y-73715771D02*
X130860476Y-73763390D01*
X130860476Y-73763390D02*
X130908095Y-73811009D01*
X130908095Y-73811009D02*
X130955714Y-73906247D01*
X130955714Y-73906247D02*
X130955714Y-74144342D01*
X130955714Y-74144342D02*
X130908095Y-74239580D01*
X130908095Y-74239580D02*
X130860476Y-74287200D01*
X130860476Y-74287200D02*
X130765238Y-74334819D01*
X130765238Y-74334819D02*
X130527143Y-74334819D01*
X130527143Y-74334819D02*
X130431905Y-74287200D01*
X130431905Y-74287200D02*
X130384286Y-74239580D01*
X168416667Y-78157200D02*
X168559524Y-78204819D01*
X168559524Y-78204819D02*
X168797619Y-78204819D01*
X168797619Y-78204819D02*
X168892857Y-78157200D01*
X168892857Y-78157200D02*
X168940476Y-78109580D01*
X168940476Y-78109580D02*
X168988095Y-78014342D01*
X168988095Y-78014342D02*
X168988095Y-77919104D01*
X168988095Y-77919104D02*
X168940476Y-77823866D01*
X168940476Y-77823866D02*
X168892857Y-77776247D01*
X168892857Y-77776247D02*
X168797619Y-77728628D01*
X168797619Y-77728628D02*
X168607143Y-77681009D01*
X168607143Y-77681009D02*
X168511905Y-77633390D01*
X168511905Y-77633390D02*
X168464286Y-77585771D01*
X168464286Y-77585771D02*
X168416667Y-77490533D01*
X168416667Y-77490533D02*
X168416667Y-77395295D01*
X168416667Y-77395295D02*
X168464286Y-77300057D01*
X168464286Y-77300057D02*
X168511905Y-77252438D01*
X168511905Y-77252438D02*
X168607143Y-77204819D01*
X168607143Y-77204819D02*
X168845238Y-77204819D01*
X168845238Y-77204819D02*
X168988095Y-77252438D01*
X169321429Y-77204819D02*
X169559524Y-78204819D01*
X169559524Y-78204819D02*
X169750000Y-77490533D01*
X169750000Y-77490533D02*
X169940476Y-78204819D01*
X169940476Y-78204819D02*
X170178572Y-77204819D01*
X171083333Y-78204819D02*
X170511905Y-78204819D01*
X170797619Y-78204819D02*
X170797619Y-77204819D01*
X170797619Y-77204819D02*
X170702381Y-77347676D01*
X170702381Y-77347676D02*
X170607143Y-77442914D01*
X170607143Y-77442914D02*
X170511905Y-77490533D01*
D10*
X150138095Y-74657419D02*
X150138095Y-75466942D01*
X150138095Y-75466942D02*
X150185714Y-75562180D01*
X150185714Y-75562180D02*
X150233333Y-75609800D01*
X150233333Y-75609800D02*
X150328571Y-75657419D01*
X150328571Y-75657419D02*
X150519047Y-75657419D01*
X150519047Y-75657419D02*
X150614285Y-75609800D01*
X150614285Y-75609800D02*
X150661904Y-75562180D01*
X150661904Y-75562180D02*
X150709523Y-75466942D01*
X150709523Y-75466942D02*
X150709523Y-74657419D01*
X151090476Y-74657419D02*
X151709523Y-74657419D01*
X151709523Y-74657419D02*
X151376190Y-75038371D01*
X151376190Y-75038371D02*
X151519047Y-75038371D01*
X151519047Y-75038371D02*
X151614285Y-75085990D01*
X151614285Y-75085990D02*
X151661904Y-75133609D01*
X151661904Y-75133609D02*
X151709523Y-75228847D01*
X151709523Y-75228847D02*
X151709523Y-75466942D01*
X151709523Y-75466942D02*
X151661904Y-75562180D01*
X151661904Y-75562180D02*
X151614285Y-75609800D01*
X151614285Y-75609800D02*
X151519047Y-75657419D01*
X151519047Y-75657419D02*
X151233333Y-75657419D01*
X151233333Y-75657419D02*
X151138095Y-75609800D01*
X151138095Y-75609800D02*
X151090476Y-75562180D01*
D11*
X165931009Y-92535714D02*
X165978628Y-92392857D01*
X165978628Y-92392857D02*
X166026247Y-92345238D01*
X166026247Y-92345238D02*
X166121485Y-92297619D01*
X166121485Y-92297619D02*
X166264342Y-92297619D01*
X166264342Y-92297619D02*
X166359580Y-92345238D01*
X166359580Y-92345238D02*
X166407200Y-92392857D01*
X166407200Y-92392857D02*
X166454819Y-92488095D01*
X166454819Y-92488095D02*
X166454819Y-92869047D01*
X166454819Y-92869047D02*
X165454819Y-92869047D01*
X165454819Y-92869047D02*
X165454819Y-92535714D01*
X165454819Y-92535714D02*
X165502438Y-92440476D01*
X165502438Y-92440476D02*
X165550057Y-92392857D01*
X165550057Y-92392857D02*
X165645295Y-92345238D01*
X165645295Y-92345238D02*
X165740533Y-92345238D01*
X165740533Y-92345238D02*
X165835771Y-92392857D01*
X165835771Y-92392857D02*
X165883390Y-92440476D01*
X165883390Y-92440476D02*
X165931009Y-92535714D01*
X165931009Y-92535714D02*
X165931009Y-92869047D01*
X165454819Y-92011904D02*
X165454819Y-91440476D01*
X166454819Y-91726190D02*
X165454819Y-91726190D01*
X166454819Y-90583333D02*
X166454819Y-91154761D01*
X166454819Y-90869047D02*
X165454819Y-90869047D01*
X165454819Y-90869047D02*
X165597676Y-90964285D01*
X165597676Y-90964285D02*
X165692914Y-91059523D01*
X165692914Y-91059523D02*
X165740533Y-91154761D01*
D12*
%TO.C,D4*%
X119045000Y-80960000D02*
X115955000Y-80960000D01*
X117499952Y-86510000D02*
G75*
G02*
X115955170Y-80960000I48J2990000D01*
G01*
X119044830Y-80960000D02*
G75*
G02*
X117500048Y-86510000I-1544830J-2560000D01*
G01*
X120000000Y-83520000D02*
G75*
G02*
X115000000Y-83520000I-2500000J0D01*
G01*
X115000000Y-83520000D02*
G75*
G02*
X120000000Y-83520000I2500000J0D01*
G01*
%TO.C,Brd1*%
X139650000Y-95720000D02*
X166950000Y-95720000D01*
X139650000Y-123120000D02*
X139650000Y-95720000D01*
X147030000Y-122582000D02*
X163667000Y-122582000D01*
X147055000Y-96142000D02*
X163655000Y-96142000D01*
X147055000Y-119242000D02*
X147030000Y-122582000D01*
X147055000Y-119242000D02*
X147055000Y-96142000D01*
X163655000Y-96142000D02*
X163655000Y-119242000D01*
X163655000Y-119242000D02*
X163655000Y-122328000D01*
X163667000Y-122582000D02*
X163655000Y-122328000D01*
X164048000Y-114200000D02*
X164048000Y-104421000D01*
X166461000Y-104421000D02*
X164048000Y-104421000D01*
X166461000Y-104421000D02*
X166461000Y-114200000D01*
X166461000Y-114200000D02*
X164048000Y-114200000D01*
X166950000Y-95720000D02*
X166950000Y-123120000D01*
X166950000Y-123120000D02*
X139650000Y-123120000D01*
%TO.C,R5*%
X126130000Y-76250000D02*
X126900000Y-76250000D01*
X126900000Y-74880000D02*
X126900000Y-77620000D01*
X126900000Y-77620000D02*
X133440000Y-77620000D01*
X133440000Y-74880000D02*
X126900000Y-74880000D01*
X133440000Y-77620000D02*
X133440000Y-74880000D01*
X134210000Y-76250000D02*
X133440000Y-76250000D01*
%TO.C,SW1*%
X164920000Y-78560000D02*
X164920000Y-73420000D01*
X167580000Y-73420000D02*
X164920000Y-73420000D01*
X167580000Y-78560000D02*
X164920000Y-78560000D01*
X167580000Y-78560000D02*
X167580000Y-73420000D01*
X167580000Y-79830000D02*
X167580000Y-81160000D01*
X167580000Y-81160000D02*
X166250000Y-81160000D01*
D10*
%TO.C,U3*%
X146970000Y-72960000D02*
X146970000Y-76770000D01*
X146970000Y-76770000D02*
X154590000Y-76770000D01*
X154590000Y-76770000D02*
X154590000Y-72960000D01*
D12*
%TO.C,BT1*%
X163090000Y-83690000D02*
X163090000Y-89810000D01*
X163090000Y-89810000D02*
X167810000Y-89810000D01*
X163700000Y-84300000D02*
X163700000Y-89200000D01*
X163700000Y-86650000D02*
X164200000Y-86650000D01*
X163700000Y-86750000D02*
X164200000Y-86750000D01*
X163700000Y-89200000D02*
X167200000Y-89200000D01*
X164200000Y-86650000D02*
X164200000Y-86850000D01*
X164200000Y-86850000D02*
X163700000Y-86850000D01*
X165200000Y-83690000D02*
X165200000Y-84300000D01*
X165200000Y-89810000D02*
X165200000Y-89200000D01*
X166500000Y-83690000D02*
X166500000Y-84300000D01*
X166500000Y-89810000D02*
X166500000Y-89200000D01*
X167200000Y-84300000D02*
X163700000Y-84300000D01*
X167200000Y-86250000D02*
X167200000Y-84300000D01*
X167200000Y-87250000D02*
X167810000Y-87250000D01*
X167200000Y-89200000D02*
X167200000Y-87250000D01*
X167810000Y-83690000D02*
X163090000Y-83690000D01*
X167810000Y-85450000D02*
X168010000Y-85450000D01*
X167810000Y-86250000D02*
X167200000Y-86250000D01*
X167810000Y-89810000D02*
X167810000Y-83690000D01*
X167910000Y-85450000D02*
X167910000Y-85150000D01*
X168010000Y-85150000D02*
X167810000Y-85150000D01*
X168010000Y-85450000D02*
X168010000Y-85150000D01*
X168110000Y-83390000D02*
X166860000Y-83390000D01*
X168110000Y-84640000D02*
X168110000Y-83390000D01*
%TD*%
M02*
