M48
; DRILL file {KiCad 8.0.8} date 2025-02-27T00:02:53-0800
; FORMAT={-:-/ absolute / inch / decimal}
; #@! TF.CreationDate,2025-02-27T00:02:53-08:00
; #@! TF.GenerationSoftware,Kicad,Pcbnew,8.0.8
; #@! TF.FileFunction,Plated,1,2,PTH
FMAT,2
INCH
; #@! TA.AperFunction,Plated,PTH,ComponentDrill
T1C0.0295
; #@! TA.AperFunction,Plated,PTH,ComponentDrill
T2C0.0315
; #@! TA.AperFunction,Plated,PTH,ComponentDrill
T3C0.0335
; #@! TA.AperFunction,Plated,PTH,ComponentDrill
T4C0.0354
; #@! TA.AperFunction,Plated,PTH,ComponentDrill
T5C0.0394
; #@! TA.AperFunction,Plated,PTH,ComponentDrill
T6C0.0400
%
G90
G05
T1
X6.5354Y-3.376
X6.5354Y-3.4547
T2
X4.9248Y-3.002
X5.3248Y-3.002
T3
X4.6862Y-3.8429
X4.6862Y-4.7429
X4.9862Y-3.8429
X4.9862Y-4.7429
T4
X4.626Y-3.2382
X4.626Y-3.3382
T5
X6.5059Y-4.1535
X6.5059Y-4.2535
X6.5059Y-4.3535
X6.5059Y-4.4535
X6.5453Y-2.9429
X6.5453Y-3.0429
X6.5453Y-3.1429
T6
X5.6362Y-2.9724
X5.6362Y-3.0724
X5.6362Y-3.1724
X5.6362Y-3.2724
X5.6362Y-3.3724
X5.6362Y-3.4724
X5.6362Y-3.5724
X6.2362Y-2.9724
X6.2362Y-3.0724
X6.2362Y-3.1724
X6.2362Y-3.2724
X6.2362Y-3.3724
X6.2362Y-3.4724
X6.2362Y-3.5724
M30
